<?xml version="1.0" encoding="iso-8859-1"?>
<!-- Uploaded to: SVG Repo, www.svgrepo.com, Generator: SVG Repo Mixer Tools -->
<!DOCTYPE svg PUBLIC "-//W3C//DTD SVG 1.1//EN" "http://www.w3.org/Graphics/SVG/1.1/DTD/svg11.dtd">
<svg height="800px" width="800px" version="1.1" id="Capa_1" xmlns="http://www.w3.org/2000/svg" xmlns:xlink="http://www.w3.org/1999/xlink" 
	 viewBox="0 0 440.691 440.691" xml:space="preserve">
<g>
	<g>
		<path style="fill:#C93F3F;" d="M134.3,294.013L134.3,294.013c-5.092-4.546-5.534-12.36-0.988-17.452l14.418-16.149l33.092,2.725
			l-1.014,12.318l-26.958-2.219L134.3,294.013z"/>
		<path style="fill:#C93F3F;" d="M134.3,321.382L134.3,321.382c-5.092-4.546-5.534-12.36-0.988-17.452l14.418-16.148l33.092,2.725
			l-1.014,12.318l-26.958-2.219L134.3,321.382z"/>
		<path style="fill:#C93F3F;" d="M306.391,294.013L306.391,294.013c5.092-4.546,5.534-12.36,0.988-17.452l-14.418-16.149
			l-33.092,2.725l1.014,12.318l26.958-2.219L306.391,294.013z"/>
		<path style="fill:#C93F3F;" d="M134.3,266.639L134.3,266.639c-5.092-4.546-5.534-12.36-0.988-17.452l14.418-16.149l33.092,2.725
			l-1.014,12.318l-26.958-2.219L134.3,266.639z"/>
		<path style="fill:#C93F3F;" d="M306.391,266.639L306.391,266.639c5.092-4.546,5.534-12.36,0.988-17.452l-14.418-16.149
			l-33.092,2.725l1.014,12.318l26.958-2.219L306.391,266.639z"/>
		<path style="fill:#C93F3F;" d="M306.391,321.382L306.391,321.382c5.092-4.546,5.534-12.36,0.988-17.452l-14.418-16.148
			l-33.092,2.725l1.014,12.318l26.958-2.219L306.391,321.382z"/>
	</g>
	<g>
		<path style="fill:#C93F3F;" d="M198.187,165.276c0,0,0.011-0.165,0.033-0.484c0.017-0.304,0.043-0.755,0.077-1.344
			c0.064-1.228,0.126-3.076,0.156-5.442c0.025-2.368,0.015-5.259-0.087-8.585c-0.104-3.325-0.283-7.084-0.615-11.181
			c-0.293-4.102-0.802-8.531-1.398-13.214c-0.662-4.671-1.42-9.6-2.464-14.649c-0.974-5.068-2.273-10.237-3.675-15.477
			c-1.503-5.204-3.129-10.479-5.086-15.633l-1.457-3.873c-0.533-1.27-1.066-2.539-1.597-3.806c-1.025-2.556-2.219-5.018-3.378-7.48
			l-0.867-1.844l-0.94-1.794c-0.627-1.195-1.251-2.383-1.871-3.565c-1.243-2.365-2.651-4.593-3.941-6.852
			c-1.351-2.218-2.797-4.323-4.152-6.433c-1.415-2.065-2.901-4.013-4.296-5.955c-2.934-3.764-5.796-7.281-8.677-10.314
			c-0.706-0.773-1.398-1.531-2.074-2.271c-0.716-0.701-1.415-1.386-2.096-2.053c-1.372-1.332-2.674-2.596-3.897-3.784
			c-2.592-2.21-4.809-4.21-6.726-5.744c-3.915-2.978-6.152-4.679-6.152-4.679s2.377,1.51,6.538,4.154
			c2.049,1.374,4.436,3.186,7.241,5.198c1.334,1.092,2.753,2.255,4.249,3.48c0.747,0.618,1.513,1.251,2.297,1.9
			c0.747,0.69,1.511,1.397,2.292,2.118c3.184,2.832,6.392,6.155,9.715,9.749c1.589,1.857,3.28,3.726,4.908,5.719
			c1.567,2.036,3.237,4.078,4.817,6.24c1.518,2.2,3.165,4.383,4.65,6.707c0.742,1.164,1.489,2.335,2.24,3.511l1.127,1.774
			l1.055,1.825c1.411,2.439,2.864,4.89,4.146,7.439c0.662,1.266,1.324,2.535,1.988,3.806l1.848,3.883
			c2.482,5.179,4.633,10.505,6.654,15.791c1.919,5.317,3.726,10.596,5.189,15.787c1.533,5.174,2.761,10.246,3.865,15.074
			c1.039,4.839,1.962,9.437,2.634,13.714c0.712,4.272,1.236,8.214,1.643,11.721c0.405,3.508,0.677,6.585,0.865,9.133
			c0.183,2.551,0.286,4.569,0.333,5.976c0.02,0.729,0.035,1.288,0.045,1.665c0.006,0.362,0.008,0.548,0.008,0.548L198.187,165.276z"
			/>
		<path style="fill:#C93F3F;" d="M227.335,165.732c0,0,0.003-0.187,0.008-0.548c0.01-0.377,0.025-0.936,0.045-1.665
			c0.047-1.407,0.149-3.425,0.333-5.976c0.188-2.548,0.46-5.625,0.865-9.133c0.407-3.508,0.931-7.45,1.643-11.721
			c0.672-4.277,1.596-8.875,2.634-13.714c1.104-4.828,2.331-9.9,3.865-15.074c1.462-5.191,3.27-10.47,5.189-15.787
			c2.021-5.286,4.173-10.613,6.654-15.791l1.848-3.883c0.663-1.27,1.326-2.539,1.988-3.806c1.283-2.549,2.735-5,4.146-7.439
			l1.055-1.825l1.127-1.774c0.751-1.177,1.497-2.347,2.24-3.511c1.485-2.324,3.132-4.507,4.65-6.707
			c1.581-2.161,3.25-4.203,4.817-6.24c1.628-1.993,3.319-3.862,4.908-5.719c3.323-3.595,6.531-6.918,9.715-9.749
			c0.78-0.721,1.545-1.428,2.292-2.118c0.784-0.649,1.55-1.282,2.297-1.9c1.496-1.226,2.915-2.388,4.249-3.48
			c2.805-2.011,5.192-3.824,7.241-5.198c4.161-2.643,6.538-4.154,6.538-4.154s-2.237,1.701-6.152,4.679
			c-1.916,1.534-4.134,3.535-6.726,5.744c-1.223,1.188-2.525,2.452-3.897,3.784c-0.681,0.668-1.38,1.352-2.096,2.053
			c-0.676,0.74-1.367,1.497-2.074,2.271c-2.882,3.033-5.743,6.55-8.677,10.314c-1.395,1.943-2.881,3.891-4.296,5.955
			c-1.355,2.11-2.801,4.215-4.152,6.433c-1.29,2.259-2.698,4.487-3.941,6.852c-0.62,1.182-1.244,2.37-1.871,3.565l-0.94,1.794
			l-0.867,1.844c-1.158,2.462-2.353,4.924-3.378,7.48c-0.532,1.267-1.064,2.536-1.597,3.806l-1.457,3.873
			c-1.957,5.154-3.583,10.429-5.086,15.633c-1.403,5.24-2.701,10.409-3.675,15.477c-1.045,5.048-1.803,9.978-2.464,14.649
			c-0.597,4.683-1.105,9.112-1.398,13.214c-0.332,4.097-0.511,7.856-0.615,11.181c-0.102,3.325-0.112,6.217-0.087,8.585
			c0.03,2.366,0.092,4.214,0.156,5.442c0.034,0.589,0.06,1.04,0.077,1.344c0.022,0.319,0.033,0.484,0.033,0.484L227.335,165.732z"/>
	</g>
	<path style="fill:#E24747;" d="M266.326,401.138h-91.962c-15.633,0-28.306,12.673-28.306,28.306v0
		c0,6.211,5.035,11.246,11.246,11.246h126.082c6.211,0,11.246-5.035,11.246-11.246v0
		C294.633,413.811,281.959,401.138,266.326,401.138z"/>
	<polygon style="fill:#C93F3F;" points="259.486,358.29 181.205,358.29 188.88,336.865 251.811,336.865 	"/>
	<polygon style="fill:#C93F3F;" points="259.486,336.865 181.205,336.865 188.88,315.441 251.811,315.441 	"/>
	<polygon style="fill:#C93F3F;" points="259.486,379.714 181.205,379.714 188.88,358.29 251.811,358.29 	"/>
	<polygon style="fill:#C93F3F;" points="259.486,401.138 181.205,401.138 188.88,379.714 251.811,379.714 	"/>
	<path style="fill:#F74B4B;" d="M258.265,315.665c5.709,0,10.337-4.628,10.337-10.337v-76.592c0-35.649-17.225-69.996-48.256-96.226
		c-31.032,26.229-48.256,60.576-48.256,96.226v76.592c0,5.709,4.628,10.337,10.337,10.337H258.265z"/>
	<g>
		<g>
			<circle style="fill:#FFFFFF;" cx="239.159" cy="181.127" r="12.173"/>
			<circle style="fill:#4D4D4D;" cx="239.159" cy="181.127" r="7.448"/>
		</g>
		<g>
			<circle style="fill:#FFFFFF;" cx="201.532" cy="181.127" r="12.173"/>
			<circle style="fill:#4D4D4D;" cx="201.532" cy="181.127" r="7.448"/>
		</g>
	</g>
	<g>
		<path style="fill:#F74B4B;" d="M114.844,8.638l-5.329,65.495h0c-7.257-0.59-12.662-6.952-12.071-14.21L102.319,0
			C73.984,25.929,59.985,65.914,69.122,106.041c6.042,26.536,21.178,48.638,41.368,63.782
			c29.157-25.889,43.682-66.456,34.414-107.159C140.053,41.358,129.33,22.92,114.844,8.638z"/>
		<path style="fill:#F74B4B;" d="M198.833,222.122h-69.581c-16.407,0-29.755-13.348-29.755-29.755v-41.871h21.012v41.871
			c0,4.821,3.922,8.743,8.743,8.743h69.581V222.122z"/>
		<path style="fill:#F74B4B;" d="M325.847,8.638l5.329,65.495h0c7.257-0.59,12.662-6.952,12.071-14.21L338.372,0
			c28.336,25.929,42.334,65.914,33.198,106.041c-6.042,26.536-21.178,48.638-41.368,63.782
			c-29.157-25.889-43.682-66.456-34.414-107.159C300.638,41.358,311.361,22.92,325.847,8.638z"/>
		<path style="fill:#F74B4B;" d="M311.439,222.122h-69.581V201.11h69.581c4.821,0,8.743-3.922,8.743-8.743v-41.871h21.012v41.871
			C341.194,208.774,327.846,222.122,311.439,222.122z"/>
	</g>
</g>
</svg>