<svg width="24" height="24" viewBox="0 0 24 24" fill="none" xmlns="http://www.w3.org/2000/svg">
<g clip-path="url(#clip0_5502_15741)">
<path d="M13.44 17.3199C13.12 17.3999 12.64 17.5599 12.04 17.5599C10.96 17.5599 9.92002 17.2799 9.04 16.6799C8.15998 16.0799 7.48002 15.3199 6.99998 14.3599L1.87999 5.3999L1.51999 5.99989C0.519977 7.79992 0 9.7999 0 11.9999C0 14.9999 1.00002 17.6399 2.91999 19.8799C4.84001 22.0799 7.31999 23.4399 10.2 23.8799L10.48 23.9199L14.52 16.9999L13.44 17.3199ZM10.04 22.9999C7.47998 22.5599 5.27997 21.3199 3.51998 19.3199C1.71996 17.2399 0.800005 14.7999 0.800005 11.9999C0.800005 10.1999 1.16 8.51991 1.87999 7.0399L6.19998 14.7199C6.71995 15.7599 7.47998 16.6399 8.51998 17.3199C9.55998 17.9599 10.72 18.3199 11.96 18.3199C12.28 18.3199 12.56 18.2799 12.8 18.2399L10.04 22.9999Z" fill="white"/>
<path d="M6.59935 10.52C6.87933 9.32003 7.55933 8.32001 8.59934 7.52001C9.55932 6.75999 10.6793 6.39999 11.9993 6.39999H22.6393L22.2793 5.8C21.2793 4.07999 19.8793 2.71998 17.9593 1.60001C16.1593 0.519977 14.1593 0 11.9993 0C10.1593 0 8.35934 0.399979 6.75933 1.19998C5.03932 2.03997 3.55931 3.24 2.51936 4.64L2.35938 4.84001L6.35935 11.4L6.59935 10.52ZM3.31936 4.91998C4.27935 3.67996 5.55935 2.67999 7.11937 1.91997C8.59938 1.15995 10.2394 0.799957 11.9994 0.799957C13.9994 0.799957 15.8793 1.31993 17.5193 2.31995C19.1193 3.23995 20.2793 4.31994 21.1994 5.63997H11.9593C10.4793 5.63997 9.19933 6.03995 8.07936 6.91997C7.15936 7.63996 6.47935 8.47995 6.07937 9.47996L3.31936 4.91998Z" fill="white"/>
<path d="M23.1175 7.48023L22.9975 7.24023H15.0375L15.7175 7.92024C16.9175 9.12022 17.5575 10.5603 17.5575 12.0002C17.5575 13.1602 17.2375 14.2402 16.5575 15.2003L11.4375 24.0003H12.1175C15.3975 23.9603 18.1975 22.7602 20.5175 20.4402C22.8375 18.1202 23.9975 15.2803 23.9975 12.0002C23.9975 10.8002 23.8375 9.08024 23.1175 7.48023ZM19.9575 19.8802C17.9575 21.8802 15.5975 22.9603 12.8375 23.1602L17.1976 15.6402C17.9576 14.5202 18.3176 13.3202 18.3176 12.0002C18.3176 10.6002 17.8376 9.24022 16.8776 8.04024H22.4776C23.0776 9.44024 23.1976 10.9602 23.1976 12.0002C23.1975 15.0402 22.1175 17.6802 19.9575 19.8802Z" fill="white"/>
<path d="M7.19531 11.9997C7.19531 14.5997 9.39531 16.7997 11.9953 16.7997C14.5953 16.7997 16.7953 14.5997 16.7953 11.9997C16.7953 9.39971 14.5953 7.19971 11.9953 7.19971C9.39531 7.19971 7.19531 9.39971 7.19531 11.9997ZM11.9953 7.99971C14.1553 7.99971 15.9953 9.83972 15.9953 11.9997C15.9953 14.1597 14.1553 15.9997 11.9953 15.9997C9.83532 15.9997 7.99532 14.1597 7.99532 11.9997C7.99532 9.83972 9.83532 7.99971 11.9953 7.99971Z" fill="white"/>
</g>
<defs>
<clipPath id="clip0_5502_15741">
<rect width="24" height="24" fill="white"/>
</clipPath>
</defs>
</svg>
