<svg width="14" height="14" viewBox="0 0 14 14" fill="none" xmlns="http://www.w3.org/2000/svg">
<path d="M4.91667 2H3.16667C2.85725 2 2.5605 2.12292 2.34171 2.34171C2.12292 2.5605 2 2.85725 2 3.16667V4.91667M12.5 4.91667V3.16667C12.5 2.85725 12.3771 2.5605 12.1583 2.34171C11.9395 2.12292 11.6428 2 11.3333 2H9.58333M9.58333 12.5H11.3333C11.6428 12.5 11.9395 12.3771 12.1583 12.1583C12.3771 11.9395 12.5 11.6428 12.5 11.3333V9.58333M2 9.58333V11.3333C2 11.6428 2.12292 11.9395 2.34171 12.1583C2.5605 12.3771 2.85725 12.5 3.16667 12.5H4.91667" stroke="#FAFAFA" stroke-width="1.16667" stroke-linecap="round" stroke-linejoin="round"/>
<g clip-path="url(#clip0_970_66955)">
<path d="M10.7 6.65965H8.21414V4.49896H7.41098V6.84334C7.41098 7.09234 7.50927 7.33147 7.68399 7.50767L9.71374 9.55465L10.2816 8.98194L8.78248 7.47009H10.7004V6.66012L10.7 6.65965Z" fill="#FAFAFA"/>
<path d="M4.42037 5.49397L5.91951 7.00584H4.00156V7.81581H6.48739V9.97648H7.29054V7.63211C7.29054 7.3831 7.19225 7.14396 7.01754 6.96779L4.98825 4.92126L4.42037 5.49397Z" fill="#FAFAFA"/>
</g>
<defs>
<clipPath id="clip0_970_66955">
<rect width="6.75627" height="5.47806" fill="white" transform="translate(4 4.5)"/>
</clipPath>
</defs>
</svg>
