<svg width="20" height="20" viewBox="0 0 20 20" fill="none" xmlns="http://www.w3.org/2000/svg">
<path d="M7.1875 10C7.1875 10.0829 7.15458 10.1624 7.09597 10.221C7.03737 10.2796 6.95788 10.3125 6.875 10.3125C6.79212 10.3125 6.71263 10.2796 6.65403 10.221C6.59542 10.1624 6.5625 10.0829 6.5625 10C6.5625 9.91712 6.59542 9.83763 6.65403 9.77903C6.71263 9.72042 6.79212 9.6875 6.875 9.6875C6.95788 9.6875 7.03737 9.72042 7.09597 9.77903C7.15458 9.83763 7.1875 9.91712 7.1875 10ZM7.1875 10H6.875M10.3125 10C10.3125 10.0829 10.2796 10.1624 10.221 10.221C10.1624 10.2796 10.0829 10.3125 10 10.3125C9.91712 10.3125 9.83763 10.2796 9.77903 10.221C9.72042 10.1624 9.6875 10.0829 9.6875 10C9.6875 9.91712 9.72042 9.83763 9.77903 9.77903C9.83763 9.72042 9.91712 9.6875 10 9.6875C10.0829 9.6875 10.1624 9.72042 10.221 9.77903C10.2796 9.83763 10.3125 9.91712 10.3125 10ZM10.3125 10H10M13.4375 10C13.4375 10.0829 13.4046 10.1624 13.346 10.221C13.2874 10.2796 13.2079 10.3125 13.125 10.3125C13.0421 10.3125 12.9626 10.2796 12.904 10.221C12.8454 10.1624 12.8125 10.0829 12.8125 10C12.8125 9.91712 12.8454 9.83763 12.904 9.77903C12.9626 9.72042 13.0421 9.6875 13.125 9.6875C13.2079 9.6875 13.2874 9.72042 13.346 9.77903C13.4046 9.83763 13.4375 9.91712 13.4375 10ZM13.4375 10H13.125M17.5 10C17.5 13.7967 14.1417 16.875 10 16.875C9.28099 16.8759 8.56503 16.7814 7.87083 16.5942C6.8923 17.2824 5.6986 17.5951 4.50833 17.475C4.376 17.4622 4.24422 17.4442 4.11333 17.4208C4.52406 16.9368 4.80456 16.356 4.92833 15.7333C5.00333 15.3525 4.8175 14.9825 4.53917 14.7117C3.275 13.4817 2.5 11.8242 2.5 10C2.5 6.20333 5.85833 3.125 10 3.125C14.1417 3.125 17.5 6.20333 17.5 10Z" stroke="#989EA4" stroke-width="1.5" stroke-linecap="round" stroke-linejoin="round"/>
</svg>