<svg width="24" height="24" viewBox="0 0 24 24" fill="none" xmlns="http://www.w3.org/2000/svg">
<path fill-rule="evenodd" clip-rule="evenodd" d="M12 2.25C6.615 2.25 2.25 6.615 2.25 12C2.25 17.385 6.615 21.75 12 21.75C17.385 21.75 21.75 17.385 21.75 12C21.75 6.615 17.385 2.25 12 2.25ZM12.75 6C12.75 5.80109 12.671 5.61032 12.5303 5.46967C12.3897 5.32902 12.1989 5.25 12 5.25C11.8011 5.25 11.6103 5.32902 11.4697 5.46967C11.329 5.61032 11.25 5.80109 11.25 6V12C11.25 12.414 11.586 12.75 12 12.75H16.5C16.6989 12.75 16.8897 12.671 17.0303 12.5303C17.171 12.3897 17.25 12.1989 17.25 12C17.25 11.8011 17.171 11.6103 17.0303 11.4697C16.8897 11.329 16.6989 11.25 16.5 11.25H12.75V6Z" fill="#6A737D"/>
</svg>