<svg width="16" height="16" viewBox="0 0 332 192" fill="none" xmlns="http://www.w3.org/2000/svg" class="logo"><path d="M45.7718 0.770123C50.4477 -0.990356 55.7252 0.330677 59.0204 4.08644L101.936 53.0005H230.064L272.98 4.08644C276.275 0.330677 281.552 -0.990356 286.228 0.770123C290.904 2.5306 294 7.00416 294 12.0005V120H332V144H270V43.8733L244.52 72.9146C242.242 75.5116 238.955 77.0005 235.5 77.0005H96.5C93.0452 77.0005 89.7581 75.5116 87.4796 72.9146L62 43.8733V144H0V120H38V12.0005C38 7.00416 41.0958 2.5306 45.7718 0.770123Z" fill="#1E293B"></path><path d="M270 168.001H332V192.001H270V168.001Z" fill="#1E293B"></path><path d="M0 168.001H62V192.001H0V168.001Z" fill="#1E293B"></path><path d="M128 128.001C128 136.837 120.837 144.001 112 144.001C103.163 144.001 96 136.837 96 128.001C96 119.164 103.163 112.001 112 112.001C120.837 112.001 128 119.164 128 128.001Z" fill="#1E293B"></path><path d="M236 128.001C236 136.837 228.837 144.001 220 144.001C211.163 144.001 204 136.837 204 128.001C204 119.164 211.163 112.001 220 112.001C228.837 112.001 236 119.164 236 128.001Z" fill="#1E293B"></path></svg>
