<svg xmlns="http://www.w3.org/2000/svg" width="22" height="20" fill="none" viewBox="0 0 22 20"><path fill="#fff" fill-rule="evenodd" d="M1.25 0.25C1.05109 0.25 0.860322 0.329018 0.71967 0.46967C0.579018 0.610322 0.5 0.801088 0.5 1C0.5 1.19891 0.579018 1.38968 0.71967 1.53033C0.860322 1.67098 1.05109 1.75 1.25 1.75H2V12.25C2 13.0456 2.31607 13.8087 2.87868 14.3713C3.44129 14.9339 4.20435 15.25 5 15.25H6.21L5.038 18.763C4.97514 18.9518 4.98988 19.1579 5.07896 19.3359C5.16804 19.5138 5.32417 19.6491 5.513 19.712C5.70183 19.7749 5.9079 19.7601 6.08588 19.671C6.26385 19.582 6.39914 19.4258 6.462 19.237L6.791 18.25H15.209L15.539 19.237C15.6073 19.4186 15.7433 19.5666 15.9184 19.6501C16.0935 19.7335 16.2941 19.7459 16.4782 19.6845C16.6622 19.6232 16.8153 19.4929 16.9053 19.3211C16.9954 19.1493 17.0153 18.9492 16.961 18.763L15.791 15.25H17C17.7956 15.25 18.5587 14.9339 19.1213 14.3713C19.6839 13.8087 20 13.0456 20 12.25V1.75H20.75C20.9489 1.75 21.1397 1.67098 21.2803 1.53033C21.421 1.38968 21.5 1.19891 21.5 1C21.5 0.801088 21.421 0.610322 21.2803 0.46967C21.1397 0.329018 20.9489 0.25 20.75 0.25H1.25ZM7.79 15.25H14.21L14.71 16.75H7.29L7.79 15.25ZM15.875 6.255C15.961 6.20611 16.0364 6.1407 16.097 6.06253C16.1577 5.98436 16.2022 5.89497 16.2281 5.79952C16.254 5.70406 16.2608 5.60443 16.2481 5.50634C16.2353 5.40826 16.2033 5.31366 16.1538 5.228C16.1044 5.14235 16.0385 5.06732 15.9599 5.00724C15.8813 4.94715 15.7916 4.90321 15.696 4.87793C15.6004 4.85264 15.5007 4.84653 15.4027 4.85993C15.3047 4.87333 15.2103 4.90598 15.125 4.956C13.7615 5.74523 12.5554 6.7792 11.567 8.006L10.03 6.47C9.88937 6.32955 9.69875 6.25066 9.5 6.25066C9.30125 6.25066 9.11063 6.32955 8.97 6.47L5.97 9.47C5.89631 9.53866 5.83721 9.62146 5.79622 9.71346C5.75523 9.80546 5.73319 9.90477 5.73141 10.0055C5.72963 10.1062 5.74816 10.2062 5.78588 10.2996C5.8236 10.393 5.87974 10.4778 5.95096 10.549C6.02218 10.6203 6.10701 10.6764 6.2004 10.7141C6.29379 10.7518 6.39382 10.7704 6.49452 10.7686C6.59523 10.7668 6.69454 10.7448 6.78654 10.7038C6.87854 10.6628 6.96134 10.6037 7.03 10.53L9.5 8.06L11.117 9.678C11.1946 9.75558 11.2882 9.81519 11.3913 9.85264C11.4945 9.89008 11.6046 9.90445 11.7138 9.89472C11.8231 9.885 11.9289 9.85142 12.0238 9.79635C12.1187 9.74128 12.2003 9.66606 12.263 9.576C13.2095 8.21806 14.4425 7.0844 15.875 6.255Z" clip-rule="evenodd"/></svg>