<svg xmlns="http://www.w3.org/2000/svg" width="6" height="9" fill="none" viewBox="0 0 6 9"><path fill="#989EA4" fill-rule="evenodd" d="M4.78829 0.916134C4.78348 0.920945 4.77696 0.923648 4.77015 0.923648C4.76335 0.923648 4.75682 0.920945 4.75201 0.916134C4.7472 0.911322 4.74449 0.904797 4.74449 0.897991C4.74449 0.891186 4.7472 0.884661 4.75201 0.879849C4.75682 0.875038 4.76335 0.872335 4.77015 0.872335C4.77696 0.872335 4.78348 0.875038 4.78829 0.879849C4.79311 0.884661 4.79581 0.891186 4.79581 0.897991C4.79581 0.904797 4.79311 0.911322 4.78829 0.916134ZM4.77015 0C4.53199 0 4.30358 0.0946096 4.13518 0.263016C3.96677 0.431421 3.87216 0.659829 3.87216 0.897991C3.87216 1.13615 3.96677 1.36456 4.13518 1.53297C4.30358 1.70137 4.53199 1.79598 4.77015 1.79598C5.00831 1.79598 5.23672 1.70137 5.40513 1.53297C5.57353 1.36456 5.66814 1.13615 5.66814 0.897991C5.66814 0.659829 5.57353 0.431421 5.40513 0.263016C5.23672 0.0946096 5.00831 0 4.77015 0ZM4.78829 4.40547C4.78348 4.41028 4.77696 4.41299 4.77015 4.41299C4.76335 4.41299 4.75682 4.41028 4.75201 4.40547C4.7472 4.40066 4.74449 4.39414 4.74449 4.38733C4.74449 4.38052 4.7472 4.374 4.75201 4.36919C4.75682 4.36438 4.76335 4.36167 4.77015 4.36167C4.77696 4.36167 4.78348 4.36438 4.78829 4.36919C4.79311 4.374 4.79581 4.38052 4.79581 4.38733C4.79581 4.39414 4.79311 4.40066 4.78829 4.40547ZM4.77015 3.48934C4.53199 3.48934 4.30358 3.58395 4.13518 3.75235C3.96677 3.92076 3.87216 4.14917 3.87216 4.38733C3.87216 4.62549 3.96677 4.8539 4.13518 5.02231C4.30358 5.19071 4.53199 5.28532 4.77015 5.28532C5.00831 5.28532 5.23672 5.19071 5.40513 5.02231C5.57353 4.8539 5.66814 4.62549 5.66814 4.38733C5.66814 4.14917 5.57353 3.92076 5.40513 3.75235C5.23672 3.58395 5.00831 3.48934 4.77015 3.48934ZM4.78829 7.89481C4.78348 7.89962 4.77696 7.90232 4.77015 7.90232C4.76335 7.90232 4.75682 7.89962 4.75201 7.89481C4.7472 7.89 4.74449 7.88347 4.74449 7.87667C4.74449 7.86986 4.7472 7.86334 4.75201 7.85853C4.75682 7.85371 4.76335 7.85101 4.77015 7.85101C4.77696 7.85101 4.78348 7.85371 4.78829 7.85853C4.79311 7.86334 4.79581 7.86986 4.79581 7.87667C4.79581 7.88347 4.79311 7.89 4.78829 7.89481ZM4.77015 6.97868C4.53199 6.97868 4.30358 7.07329 4.13518 7.24169C3.96677 7.4101 3.87216 7.63851 3.87216 7.87667C3.87216 8.11483 3.96677 8.34324 4.13518 8.51164C4.30358 8.68005 4.53199 8.77466 4.77015 8.77466C5.00831 8.77466 5.23672 8.68005 5.40513 8.51164C5.57353 8.34324 5.66814 8.11483 5.66814 7.87667C5.66814 7.63851 5.57353 7.4101 5.40513 7.24169C5.23672 7.07329 5.00831 6.97868 4.77015 6.97868ZM0.916134 0.91702C0.911322 0.921832 0.904796 0.924535 0.897991 0.924535C0.891187 0.924535 0.884661 0.921832 0.879849 0.91702C0.875038 0.912209 0.872335 0.905683 0.872335 0.898878C0.872335 0.892073 0.875038 0.885547 0.879849 0.880736C0.884661 0.875924 0.891187 0.873221 0.897991 0.873221C0.904796 0.873221 0.911322 0.875924 0.916134 0.880736C0.920945 0.885547 0.923648 0.892073 0.923648 0.898878C0.923648 0.905683 0.920945 0.912209 0.916134 0.91702ZM0.897991 0.000886679C0.659829 0.000886679 0.431422 0.0954962 0.263016 0.263902C0.0946102 0.432308 0 0.660715 0 0.898878C0 1.13704 0.0946102 1.36545 0.263016 1.53385C0.431422 1.70226 0.659829 1.79687 0.897991 1.79687C1.13615 1.79687 1.36456 1.70226 1.53297 1.53385C1.70137 1.36545 1.79598 1.13704 1.79598 0.898878C1.79598 0.660715 1.70137 0.432308 1.53297 0.263902C1.36456 0.0954962 1.13615 0.000886679 0.897991 0.000886679ZM0.916134 4.40636C0.911323 4.41117 0.904797 4.41387 0.897991 4.41387C0.891186 4.41387 0.88466 4.41117 0.879849 4.40636C0.875038 4.40155 0.872335 4.39502 0.872335 4.38822C0.872335 4.38141 0.875038 4.37489 0.879849 4.37007C0.88466 4.36526 0.891186 4.36256 0.897991 4.36256C0.904797 4.36256 0.911323 4.36526 0.916134 4.37007C0.920945 4.37489 0.923648 4.38141 0.923648 4.38822C0.923648 4.39502 0.920945 4.40155 0.916134 4.40636ZM0.897991 3.49022C0.659828 3.49022 0.431421 3.58484 0.263016 3.75324C0.0946104 3.92165 0 4.15005 0 4.38822C0 4.62638 0.0946104 4.85479 0.263016 5.02319C0.431421 5.1916 0.659828 5.28621 0.897991 5.28621C1.13615 5.28621 1.36456 5.1916 1.53297 5.02319C1.70137 4.85479 1.79598 4.62638 1.79598 4.38822C1.79598 4.15005 1.70137 3.92165 1.53297 3.75324C1.36456 3.58484 1.13615 3.49022 0.897991 3.49022ZM0.916134 7.8957C0.911322 7.90051 0.904795 7.90321 0.897991 7.90321C0.891187 7.90321 0.884661 7.90051 0.879849 7.8957C0.875038 7.89089 0.872335 7.88436 0.872335 7.87755C0.872335 7.87075 0.875038 7.86422 0.879849 7.85941C0.884661 7.8546 0.891187 7.8519 0.897991 7.8519C0.904795 7.8519 0.911322 7.8546 0.916134 7.85941C0.920945 7.86422 0.923648 7.87075 0.923648 7.87755C0.923648 7.88436 0.920945 7.89089 0.916134 7.8957ZM0.897991 6.97956C0.65983 6.97956 0.431422 7.07417 0.263016 7.24258C0.0946099 7.41098 0 7.63939 0 7.87755C0 8.11572 0.0946099 8.34412 0.263016 8.51253C0.431422 8.68094 0.65983 8.77555 0.897991 8.77555C1.13615 8.77555 1.36456 8.68094 1.53297 8.51253C1.70137 8.34412 1.79598 8.11572 1.79598 7.87755C1.79598 7.63939 1.70137 7.41098 1.53297 7.24258C1.36456 7.07417 1.13615 6.97956 0.897991 6.97956Z" clip-rule="evenodd"/></svg>