<svg width="24" height="24" viewBox="0 0 24 24" fill="none" xmlns="http://www.w3.org/2000/svg">
<path d="M6.5 17.5L14 14L17.5 6.5L10 10L6.5 17.5ZM12 13C11.7167 13 11.4793 12.904 11.288 12.712C11.0967 12.52 11.0007 12.2827 11 12C10.9993 11.7173 11.0953 11.48 11.288 11.288C11.4807 11.096 11.718 11 12 11C12.282 11 12.5197 11.096 12.713 11.288C12.9063 11.48 13.002 11.7173 13 12C12.998 12.2827 12.902 12.5203 12.712 12.713C12.522 12.9057 12.2847 13.0013 12 13ZM12 22C10.6167 22 9.31667 21.7373 8.1 21.212C6.88334 20.6867 5.825 19.9743 4.925 19.075C4.025 18.1757 3.31267 17.1173 2.788 15.9C2.26333 14.6827 2.00067 13.3827 2 12C1.99933 10.6173 2.262 9.31733 2.788 8.1C3.314 6.88267 4.02633 5.82433 4.925 4.925C5.82367 4.02567 6.882 3.31333 8.1 2.788C9.318 2.26267 10.618 2 12 2C13.382 2 14.682 2.26267 15.9 2.788C17.118 3.31333 18.1763 4.02567 19.075 4.925C19.9737 5.82433 20.6863 6.88267 21.213 8.1C21.7397 9.31733 22.002 10.6173 22 12C21.998 13.3827 21.7353 14.6827 21.212 15.9C20.6887 17.1173 19.9763 18.1757 19.075 19.075C18.1737 19.9743 17.1153 20.687 15.9 21.213C14.6847 21.739 13.3847 22.0013 12 22Z" fill="#6A737D"/>
</svg>