<svg xmlns="http://www.w3.org/2000/svg" width="36" height="36" fill="none" viewBox="0 0 18 18"><path stroke="#989EA4" stroke-linecap="round" stroke-linejoin="round" stroke-width="1.5" d="M9.89252 6.51602C10.3799 6.74871 10.8043 7.09497 11.1301 7.5257C11.4559 7.95643 11.6736 8.45906 11.7648 8.99136C11.8561 9.52366 11.8183 10.0701 11.6546 10.5848C11.4909 11.0994 11.206 11.5673 10.824 11.949L7.44902 15.324C6.81608 15.957 5.95763 16.3125 5.06252 16.3125C4.16741 16.3125 3.30896 15.957 2.67602 15.324C2.04308 14.6911 1.6875 13.8326 1.6875 12.9375C1.6875 12.0424 2.04308 11.184 2.67602 10.551L3.99377 9.23327M14.0063 8.76677L15.324 7.44902C15.957 6.81608 16.3125 5.95763 16.3125 5.06252C16.3125 4.16741 15.957 3.30896 15.324 2.67602C14.6911 2.04308 13.8326 1.6875 12.9375 1.6875C12.0424 1.6875 11.184 2.04308 10.551 2.67602L7.17602 6.05102C6.794 6.43277 6.50917 6.90063 6.34546 7.41529C6.18175 7.92995 6.14393 8.47638 6.2352 9.00868C6.32646 9.54098 6.54414 10.0436 6.86994 10.4743C7.19574 10.9051 7.62015 11.2513 8.10752 11.484"/></svg>