<svg xmlns="http://www.w3.org/2000/svg" width="16" height="18" fill="none" viewBox="0 0 16 18"><path fill="#989EA4" fill-rule="evenodd" d="M7.2321 0.875C6.46793 0.875 5.81627 1.4275 5.69043 2.18083L5.5421 3.07417C5.52543 3.17417 5.44627 3.29083 5.2946 3.36417C5.00906 3.50143 4.73438 3.66022 4.47293 3.83917C4.3346 3.935 4.1946 3.94417 4.09793 3.90833L3.25043 3.59C2.90397 3.4602 2.52268 3.45755 2.17445 3.58253C1.82621 3.70751 1.53362 3.95201 1.34877 4.2725L0.580434 5.60333C0.395508 5.92363 0.330196 6.29915 0.396115 6.66307C0.462034 7.027 0.65491 7.35575 0.940434 7.59083L1.64043 8.1675C1.7196 8.2325 1.7821 8.35833 1.76877 8.52583C1.74502 8.84178 1.74502 9.15906 1.76877 9.475C1.78127 9.64167 1.7196 9.76833 1.64127 9.83333L0.940434 10.41C0.65491 10.6451 0.462034 10.9738 0.396115 11.3378C0.330196 11.7017 0.395508 12.0772 0.580434 12.3975L1.34877 13.7283C1.53376 14.0487 1.8264 14.293 2.17462 14.4178C2.52285 14.5426 2.90406 14.5399 3.25043 14.41L4.0996 14.0917C4.19543 14.0558 4.33543 14.0658 4.4746 14.16C4.7346 14.3383 5.00877 14.4975 5.29543 14.635C5.4471 14.7083 5.52627 14.825 5.54293 14.9267L5.69127 15.8192C5.8171 16.5725 6.46877 17.125 7.23293 17.125H8.7696C9.53293 17.125 10.1854 16.5725 10.3113 15.8192L10.4596 14.9258C10.4763 14.8258 10.5546 14.7092 10.7071 14.635C10.9938 14.4975 11.2679 14.3383 11.5279 14.16C11.6671 14.065 11.8071 14.0558 11.9029 14.0917L12.7529 14.41C13.0992 14.5394 13.4801 14.5418 13.828 14.4168C14.1758 14.2919 14.4681 14.0476 14.6529 13.7275L15.4221 12.3967C15.607 12.0764 15.6723 11.7009 15.6064 11.3369C15.5405 10.973 15.3476 10.6443 15.0621 10.4092L14.3621 9.8325C14.2829 9.7675 14.2204 9.64167 14.2338 9.47417C14.2575 9.15822 14.2575 8.84095 14.2338 8.525C14.2204 8.35833 14.2829 8.23167 14.3613 8.16667L15.0613 7.59C15.6513 7.105 15.8038 6.265 15.4221 5.6025L14.6538 4.27167C14.4688 3.95132 14.1761 3.707 13.8279 3.58218C13.4797 3.45735 13.0985 3.46013 12.7521 3.59L11.9021 3.90833C11.8071 3.94417 11.6671 3.93417 11.5279 3.83917C11.2668 3.66025 10.9924 3.50145 10.7071 3.36417C10.5546 3.29167 10.4763 3.175 10.4596 3.07417L10.3104 2.18083C10.2497 1.81589 10.0614 1.48435 9.77905 1.24522C9.49674 1.0061 9.13874 0.874907 8.76877 0.875H7.23293H7.2321ZM8.00043 12.125C8.82923 12.125 9.62409 11.7958 10.2101 11.2097C10.7962 10.6237 11.1254 9.8288 11.1254 9C11.1254 8.1712 10.7962 7.37634 10.2101 6.79029C9.62409 6.20424 8.82923 5.875 8.00043 5.875C7.17163 5.875 6.37678 6.20424 5.79072 6.79029C5.20467 7.37634 4.87543 8.1712 4.87543 9C4.87543 9.8288 5.20467 10.6237 5.79072 11.2097C6.37678 11.7958 7.17163 12.125 8.00043 12.125Z" clip-rule="evenodd"/></svg>