<svg xmlns="http://www.w3.org/2000/svg" width="18" height="18" fill="none" viewBox="0 0 18 18"><path stroke="#B3BCC5" stroke-linecap="round" stroke-linejoin="round" stroke-width="1.5" d="M9.89249 6.51602C10.3799 6.74871 10.8043 7.09497 11.1301 7.5257C11.4559 7.95643 11.6735 8.45906 11.7648 8.99136C11.8561 9.52367 11.8183 10.0701 11.6546 10.5848C11.4908 11.0994 11.206 11.5673 10.824 11.949L7.44899 15.324C6.81605 15.957 5.9576 16.3125 5.06249 16.3125C4.16738 16.3125 3.30893 15.957 2.67599 15.324C2.04305 14.6911 1.68747 13.8326 1.68747 12.9375C1.68747 12.0424 2.04305 11.184 2.67599 10.551L3.99374 9.23327M14.0062 8.76677L15.324 7.44902C15.9569 6.81608 16.3125 5.95763 16.3125 5.06252C16.3125 4.16741 15.9569 3.30896 15.324 2.67602C14.6911 2.04308 13.8326 1.6875 12.9375 1.6875C12.0424 1.6875 11.1839 2.04308 10.551 2.67602L7.17599 6.05102C6.79397 6.43277 6.50914 6.90063 6.34543 7.41529C6.18172 7.92995 6.1439 8.47638 6.23517 9.00868C6.32643 9.54098 6.54411 10.0436 6.86991 10.4743C7.19571 10.9051 7.62012 11.2513 8.10749 11.484"/></svg>