<svg width="18" height="19" viewBox="0 0 18 19" fill="none" xmlns="http://www.w3.org/2000/svg">
<path fill-rule="evenodd" clip-rule="evenodd" d="M6.50004 3.25C6.63584 3.25003 6.76794 3.29429 6.87635 3.37608C6.98475 3.45788 7.06357 3.57275 7.10087 3.70333L7.77837 6.075C7.92425 6.58576 8.19791 7.05092 8.57351 7.42652C8.94912 7.80213 9.41427 8.07579 9.92504 8.22167L12.2967 8.89917C12.4272 8.93655 12.542 9.0154 12.6237 9.1238C12.7054 9.2322 12.7496 9.36425 12.7496 9.5C12.7496 9.63574 12.7054 9.7678 12.6237 9.8762C12.542 9.9846 12.4272 10.0634 12.2967 10.1008L9.92504 10.7783C9.41427 10.9242 8.94912 11.1979 8.57351 11.5735C8.19791 11.9491 7.92425 12.4142 7.77837 12.925L7.10087 15.2967C7.06349 15.4272 6.98464 15.5419 6.87624 15.6236C6.76784 15.7054 6.63578 15.7495 6.50004 15.7495C6.36429 15.7495 6.23224 15.7054 6.12384 15.6236C6.01544 15.5419 5.93659 15.4272 5.8992 15.2967L5.2217 12.925C5.07583 12.4142 4.80217 11.9491 4.42656 11.5735C4.05095 11.1979 3.5858 10.9242 3.07504 10.7783L0.703371 10.1008C0.572875 10.0634 0.458097 9.9846 0.37639 9.8762C0.294683 9.7678 0.250488 9.63574 0.250488 9.5C0.250488 9.36425 0.294683 9.2322 0.37639 9.1238C0.458097 9.0154 0.572875 8.93655 0.703371 8.89917L3.07504 8.22167C3.5858 8.07579 4.05095 7.80213 4.42656 7.42652C4.80217 7.05092 5.07583 6.58576 5.2217 6.075L5.8992 3.70333C5.9365 3.57275 6.01532 3.45788 6.12373 3.37608C6.23214 3.29429 6.36423 3.25003 6.50004 3.25ZM14 0.75C14.1395 0.749922 14.2749 0.79647 14.3848 0.882239C14.4948 0.968007 14.5729 1.08807 14.6067 1.22333L14.8217 2.08667C15.0184 2.87 15.63 3.48167 16.4134 3.67833L17.2767 3.89333C17.4122 3.9269 17.5326 4.00488 17.6186 4.11483C17.7047 4.22479 17.7514 4.36038 17.7514 4.5C17.7514 4.63962 17.7047 4.77521 17.6186 4.88517C17.5326 4.99512 17.4122 5.0731 17.2767 5.10667L16.4134 5.32167C15.63 5.51833 15.0184 6.13 14.8217 6.91333L14.6067 7.77667C14.5731 7.91219 14.4952 8.03257 14.3852 8.11861C14.2753 8.20465 14.1397 8.2514 14 8.2514C13.8604 8.2514 13.7248 8.20465 13.6149 8.11861C13.5049 8.03257 13.4269 7.91219 13.3934 7.77667L13.1784 6.91333C13.0822 6.52869 12.8833 6.17741 12.603 5.89706C12.3226 5.61671 11.9713 5.41782 11.5867 5.32167L10.7234 5.10667C10.5878 5.0731 10.4675 4.99512 10.3814 4.88517C10.2954 4.77521 10.2486 4.63962 10.2486 4.5C10.2486 4.36038 10.2954 4.22479 10.3814 4.11483C10.4675 4.00488 10.5878 3.9269 10.7234 3.89333L11.5867 3.67833C11.9713 3.58218 12.3226 3.38329 12.603 3.10294C12.8833 2.82258 13.0822 2.47131 13.1784 2.08667L13.3934 1.22333C13.4272 1.08807 13.5053 0.968007 13.6152 0.882239C13.7252 0.79647 13.8606 0.749922 14 0.75ZM12.75 12C12.8813 11.9999 13.0093 12.0412 13.1158 12.1179C13.2223 12.1946 13.3019 12.303 13.3434 12.4275L13.6717 13.4133C13.7967 13.7858 14.0884 14.0792 14.4617 14.2033L15.4475 14.5325C15.5717 14.5742 15.6796 14.6538 15.756 14.7601C15.8325 14.8664 15.8736 14.9941 15.8736 15.125C15.8736 15.2559 15.8325 15.3836 15.756 15.4899C15.6796 15.5962 15.5717 15.6758 15.4475 15.7175L14.4617 16.0467C14.0892 16.1717 13.7959 16.4633 13.6717 16.8367L13.3425 17.8225C13.3009 17.9466 13.2212 18.0545 13.1149 18.131C13.0086 18.2075 12.881 18.2486 12.75 18.2486C12.6191 18.2486 12.4915 18.2075 12.3851 18.131C12.2788 18.0545 12.1992 17.9466 12.1575 17.8225L11.8284 16.8367C11.767 16.6527 11.6637 16.4856 11.5265 16.3485C11.3894 16.2114 11.2223 16.1081 11.0384 16.0467L10.0525 15.7175C9.9284 15.6758 9.82049 15.5962 9.74404 15.4899C9.66759 15.3836 9.62646 15.2559 9.62646 15.125C9.62646 14.9941 9.66759 14.8664 9.74404 14.7601C9.82049 14.6538 9.9284 14.5742 10.0525 14.5325L11.0384 14.2033C11.4109 14.0783 11.7042 13.7867 11.8284 13.4133L12.1575 12.4275C12.199 12.3031 12.2785 12.1949 12.3848 12.1182C12.4911 12.0414 12.6189 12.0001 12.75 12Z" fill="#369DFD"/>
</svg>
