<svg width="777" height="778" viewBox="0 0 777 778" fill="none" xmlns="http://www.w3.org/2000/svg">
<path fill-rule="evenodd" clip-rule="evenodd" d="M557.948 613.249L599.689 579.008L737.82 465.694V468.233V473.827L603.992 583.897L546.329 631.323L540.735 636.056L248.12 566.345L255.436 559.46L540.735 627.45L557.948 613.249Z" fill="#0263EF"/>
<path fill-rule="evenodd" clip-rule="evenodd" d="M88.4727 126.561L282.258 0.269531L374.758 14.2695L385.758 16.2695L599.689 51.7695L739.972 73.6324L557.948 208.752L416.374 183.967L206.379 147.203L195.191 145.244L88.4727 126.561Z" fill="white"/>
<path fill-rule="evenodd" clip-rule="evenodd" d="M88.4727 126.561L195.191 145.244L206.379 147.203L416.374 183.967L557.948 208.752L540.735 235.862L75.5632 151.089L88.4727 126.561Z" fill="white"/>
<path fill-rule="evenodd" clip-rule="evenodd" d="M737.82 465.694L599.689 579.008L557.948 613.249L540.735 627.45V235.862L557.948 208.752L739.972 73.6324V145.244V463.929L737.82 465.694Z" fill="#E4E4E5"/>
<path fill-rule="evenodd" clip-rule="evenodd" d="M522.662 266.414L390.125 242.316V390.776L522.662 418.316V266.414Z" fill="white"/>
<path fill-rule="evenodd" clip-rule="evenodd" d="M522.662 564.623L390.125 534.501V560.751L522.662 593.024V564.623Z" fill="#0263EF"/>
<path fill-rule="evenodd" clip-rule="evenodd" d="M63.084 446.134V427.353V423.48L94.9274 431.656V453.264L63.084 446.134Z" fill="#0263EF"/>
<path fill-rule="evenodd" clip-rule="evenodd" d="M94.9274 431.656L63.084 423.48L67.3872 420.467L70.8297 421.274L82.8786 424.098L94.9274 426.922V431.656Z" fill="#0263EF"/>
<path fill-rule="evenodd" clip-rule="evenodd" d="M178.839 442.414L94.9274 422.619L99.2306 420.467L114.292 423.829L183.142 439.196L178.839 442.414Z" fill="white"/>
<path fill-rule="evenodd" clip-rule="evenodd" d="M192.179 471.675L178.839 442.414L183.142 439.196L195.191 467.802L192.179 471.675Z" fill="#E4E4E5"/>
<path fill-rule="evenodd" clip-rule="evenodd" d="M216.277 477.269L192.179 471.675L195.191 467.802L219.719 473.396L216.277 477.269Z" fill="white"/>
<path fill-rule="evenodd" clip-rule="evenodd" d="M216.707 480.531L216.277 477.269L219.719 473.396L220.58 481.398L216.707 480.531Z" fill="white"/>
<path fill-rule="evenodd" clip-rule="evenodd" d="M94.9274 453.264V431.656V426.922V422.619L178.839 442.414L192.179 471.675L216.277 477.269L216.707 480.531L94.9274 453.264Z" fill="white"/>
<path fill-rule="evenodd" clip-rule="evenodd" d="M114.292 404.316L82.8786 397.23L87.1817 394.218L91.0546 395.079L104.394 398.043L114.292 400.243V404.316Z" fill="#EF2D02"/>
<path fill-rule="evenodd" clip-rule="evenodd" d="M94.9274 426.922L82.8786 424.098V411.861V400.673V397.23L114.292 404.316V423.829L99.2306 420.467L94.9274 422.619V426.922Z" fill="#EF2D02"/>
<path fill-rule="evenodd" clip-rule="evenodd" d="M183.142 439.196L114.292 423.829V404.316V400.243V395.079L201.646 414.873L209.392 437.25L240.805 444.996L246.829 450.59L246.399 479.165L238.653 486.306V485.445L220.58 481.398L219.719 473.396L195.191 467.802L183.142 439.196Z" fill="white"/>
<path fill-rule="evenodd" clip-rule="evenodd" d="M209.392 437.25L201.646 414.873L206.379 412.291L213.264 434.238L209.392 437.25Z" fill="#E4E4E5"/>
<path fill-rule="evenodd" clip-rule="evenodd" d="M201.646 414.873L114.292 395.079L119.025 392.497L134.947 396.105L206.379 412.291L201.646 414.873Z" fill="white"/>
<path fill-rule="evenodd" clip-rule="evenodd" d="M240.805 444.996L209.392 437.25L213.264 434.238L243.817 441.553L240.805 444.996Z" fill="white"/>
<path fill-rule="evenodd" clip-rule="evenodd" d="M249.841 447.147L246.829 450.59L240.805 444.996L243.817 441.553L249.841 447.147Z" fill="white"/>
<path fill-rule="evenodd" clip-rule="evenodd" d="M246.399 479.165L246.829 450.59L249.841 447.147V475.992L246.399 479.165Z" fill="#E4E4E5"/>
<path fill-rule="evenodd" clip-rule="evenodd" d="M114.292 400.243L104.394 398.043V386.472V372.702L134.947 379.157V396.105L119.025 392.497L114.292 395.079V400.243Z" fill="#02C8EF"/>
<path fill-rule="evenodd" clip-rule="evenodd" d="M134.947 374.854V379.157L104.394 372.702L107.407 370.594L108.698 369.69L121.607 372.23L124.189 372.738L134.947 374.854Z" fill="#02C8EF"/>
<path fill-rule="evenodd" clip-rule="evenodd" d="M226.174 389.485L134.947 369.69L139.25 366.678L154.174 369.876L229.617 386.042L226.174 389.485Z" fill="white"/>
<path fill-rule="evenodd" clip-rule="evenodd" d="M234.35 409.279L226.174 389.485L229.617 386.042L237.793 406.267L234.35 409.279Z" fill="#E4E4E5"/>
<path fill-rule="evenodd" clip-rule="evenodd" d="M264.902 417.025L234.35 409.279L237.793 406.267L268.345 413.582L264.902 417.025Z" fill="white"/>
<path fill-rule="evenodd" clip-rule="evenodd" d="M269.636 421.758L264.902 417.025L268.345 413.582L273.509 418.746L269.636 421.758Z" fill="white"/>
<path fill-rule="evenodd" clip-rule="evenodd" d="M269.636 457.744V421.758L273.509 418.746V454.173L269.636 457.744Z" fill="#E4E4E5"/>
<path fill-rule="evenodd" clip-rule="evenodd" d="M213.264 434.238L206.379 412.291L134.947 396.105V379.157V374.854V369.69L226.174 389.485L234.35 409.279L264.902 417.025L269.636 421.758V457.744L249.841 475.992V447.147L243.817 441.553L213.264 434.238Z" fill="white"/>
<path fill-rule="evenodd" clip-rule="evenodd" d="M540.735 667.469V754.823L41.9985 627.297L35.9741 625.835V564.638L224.883 610.237L238.653 599.049V593.455L540.735 667.469Z" fill="white"/>
<path fill-rule="evenodd" clip-rule="evenodd" d="M41.9985 627.297L540.735 754.823L774.546 544.399V566.345L546.329 772.036L540.735 776.77L41.9985 648.523V627.297Z" fill="#0263EF"/>
<path fill-rule="evenodd" clip-rule="evenodd" d="M255.436 559.46L540.735 627.45V235.862L75.5632 151.089V406.267L82.8786 400.673V397.23L87.1817 394.218L91.0546 395.079L94.9274 392.497V390.776L93.6365 204.018L320.413 247.145L331.602 236.292L365.166 241.886V255.656V556.017L279.103 536.883L255.436 559.46ZM390.125 242.316L522.662 266.414V418.316L390.125 390.776V242.316ZM390.125 534.501L522.662 564.623V593.024L390.125 560.751V534.501Z" fill="white"/>
<path fill-rule="evenodd" clip-rule="evenodd" d="M224.883 610.237L35.9741 564.638L0.257812 556.017V442.844L224.883 494.912V610.237Z" fill="white"/>
<path fill-rule="evenodd" clip-rule="evenodd" d="M63.084 446.134L94.9274 453.264L216.707 480.531L220.58 481.398L238.653 485.445L224.883 494.912L0.257812 442.844L11.8764 434.668L32.1012 439.196L44.1501 441.894L63.084 446.134Z" fill="white"/>
<path fill-rule="evenodd" clip-rule="evenodd" d="M238.653 485.445V486.306V498.785V575.381V593.455V599.049L224.883 610.237V494.912L238.653 485.445Z" fill="#E4E4E5"/>
<path fill-rule="evenodd" clip-rule="evenodd" d="M255.436 559.46L248.12 566.345L238.653 575.381V498.785L348.814 396.37V470.384L315.884 501.797L304.492 512.664L292.873 523.747L279.103 536.883L255.436 559.46Z" fill="#E4E4E5"/>
<path fill-rule="evenodd" clip-rule="evenodd" d="M238.653 486.306L246.399 479.165L249.841 475.992L269.636 457.744L273.509 454.173L289.861 439.099L293.734 435.529L344.613 388.624L348.814 384.751V396.37L238.653 498.785V486.306Z" fill="white"/>
<path fill-rule="evenodd" clip-rule="evenodd" d="M63.084 423.48V427.353L44.1501 441.894L32.1012 439.196L75.5632 406.267L82.8786 400.673V411.861L70.8297 421.274L67.3872 420.467L63.084 423.48Z" fill="white"/>
<path fill-rule="evenodd" clip-rule="evenodd" d="M104.394 398.043L91.0546 395.079L94.9274 392.497L104.394 386.472V398.043Z" fill="white"/>
<path fill-rule="evenodd" clip-rule="evenodd" d="M82.8786 424.098L70.8297 421.274L82.8786 411.861V424.098Z" fill="#002F73"/>
<path fill-rule="evenodd" clip-rule="evenodd" d="M63.084 427.353V446.134L44.1501 441.894L63.084 427.353Z" fill="#002F73"/>
<path fill-rule="evenodd" clip-rule="evenodd" d="M737.82 473.827V468.233L776.549 474.687L632.393 592.538L540.735 667.469L238.653 593.455V575.381L248.12 566.345L540.735 636.056L546.329 631.323L603.992 583.897L737.82 473.827Z" fill="white"/>
<path fill-rule="evenodd" clip-rule="evenodd" d="M348.814 508.682V523.313L304.492 512.664L315.884 501.797L348.814 508.682Z" fill="#0B1012"/>
<path fill-rule="evenodd" clip-rule="evenodd" d="M154.311 342.58L158.614 339.138L171.954 341.833L241.665 355.92L238.223 360.223L154.311 342.58Z" fill="white"/>
<path fill-rule="evenodd" clip-rule="evenodd" d="M238.223 360.223L241.665 355.92L243.863 360.223L246.939 366.248L251.993 376.145L248.55 380.018L238.223 360.223Z" fill="#E4E4E5"/>
<path fill-rule="evenodd" clip-rule="evenodd" d="M248.55 380.018L251.993 376.145L286.849 384.751L283.836 388.624L248.55 380.018Z" fill="white"/>
<path fill-rule="evenodd" clip-rule="evenodd" d="M283.836 388.624L286.849 384.751L293.303 389.485L289.861 393.358L283.836 388.624Z" fill="white"/>
<path fill-rule="evenodd" clip-rule="evenodd" d="M293.734 435.529L289.861 439.099V393.358L293.303 389.485L293.734 435.529Z" fill="#E4E4E5"/>
<path fill-rule="evenodd" clip-rule="evenodd" d="M154.311 349.896L146.781 348.067L139.25 346.238L124.189 342.58L128.492 339.998L129.783 340.299L131.935 340.802L151.299 345.32L154.311 346.023V349.896Z" fill="#EFC802"/>
<path fill-rule="evenodd" clip-rule="evenodd" d="M229.617 386.042L154.174 369.876L154.311 349.896V346.023V342.58L238.223 360.223L248.55 380.018L283.836 388.624L289.861 393.358V439.099L273.509 454.173V418.746L268.345 413.582L237.793 406.267L229.617 386.042Z" fill="white"/>
<path fill-rule="evenodd" clip-rule="evenodd" d="M134.947 374.854L124.189 372.738V342.58L139.25 346.238L146.781 348.067L154.311 349.896L154.174 369.876L139.25 366.678L134.947 369.69V374.854Z" fill="#EFC802"/>
<path fill-rule="evenodd" clip-rule="evenodd" d="M108.698 369.69L107.407 370.594V224.243L121.607 226.977V372.23L108.698 369.69Z" fill="#002F73"/>
<path fill-rule="evenodd" clip-rule="evenodd" d="M209.392 282.692L158.614 272.008V339.138L171.954 341.833V274.815L209.392 282.692ZM332.462 380.93L348.814 384.751V312.028L293.734 300.438L332.462 335.265V380.93Z" fill="#00204D"/>
<path fill-rule="evenodd" clip-rule="evenodd" d="M129.783 228.551L131.935 228.965V340.802L129.783 340.299V228.551Z" fill="#858D97"/>
<path fill-rule="evenodd" clip-rule="evenodd" d="M124.189 372.738L121.607 372.23V226.977L129.783 228.551V340.299L128.492 339.998L124.189 342.58V372.738Z" fill="#07244D"/>
<path fill-rule="evenodd" clip-rule="evenodd" d="M131.935 228.965L151.299 232.693V345.32L131.935 340.802V228.965Z" fill="#07244D"/>
<path fill-rule="evenodd" clip-rule="evenodd" d="M151.299 232.693L158.614 234.101V260.82V272.008V339.138L154.311 342.58V346.023L151.299 345.32V232.693Z" fill="#07244D"/>
<path fill-rule="evenodd" clip-rule="evenodd" d="M348.814 300.409V312.028L293.734 300.438L279.103 297.36L209.392 282.692L158.614 272.008V260.82L167.651 262.701L348.814 300.409Z" fill="#1B2124"/>
<path fill-rule="evenodd" clip-rule="evenodd" d="M246.939 366.248L251.993 376.145L286.849 384.751L293.303 389.485L293.734 435.529L344.613 388.624L246.939 366.248Z" fill="#E4E4E5"/>
<path fill-rule="evenodd" clip-rule="evenodd" d="M243.863 360.223L332.462 380.93L348.814 384.751L344.613 388.624L246.939 366.248L243.863 360.223Z" fill="#E4E4E5"/>
<path fill-rule="evenodd" clip-rule="evenodd" d="M540.735 754.823V667.469L632.393 592.538L776.549 474.687V542.677L774.546 544.399L540.735 754.823Z" fill="#E4E4E5"/>
<path fill-rule="evenodd" clip-rule="evenodd" d="M104.394 372.702V386.472L94.9274 392.497V390.776L93.6365 204.018L320.413 247.145L331.602 236.292L365.166 241.886V255.656V556.017L279.103 536.883L292.873 523.747L348.814 536.883V523.313V508.682V470.384V396.37V384.751V312.028V300.409V269.857L167.651 235.8L158.614 234.101L151.299 232.693L131.935 228.965L129.783 228.551L121.607 226.977L107.407 224.243V370.594L104.394 372.702Z" fill="#0263EF"/>
<path fill-rule="evenodd" clip-rule="evenodd" d="M241.665 355.92L171.954 341.833V274.815L209.392 282.692L279.103 297.36L293.734 300.438L332.462 335.265V380.93L243.863 360.223L241.665 355.92Z" fill="#1B2124"/>
<path fill-rule="evenodd" clip-rule="evenodd" d="M158.614 260.82V234.101L167.651 235.8V262.701L158.614 260.82Z" fill="#1B2124"/>
<path fill-rule="evenodd" clip-rule="evenodd" d="M348.814 269.857V300.409L167.651 262.701V235.8L348.814 269.857Z" fill="#00204D"/>
<path fill-rule="evenodd" clip-rule="evenodd" d="M315.884 501.797L348.814 470.384V508.682L315.884 501.797Z" fill="#00204D"/>
<path fill-rule="evenodd" clip-rule="evenodd" d="M292.873 523.747L304.492 512.664L348.814 523.313V536.883L292.873 523.747Z" fill="#00204D"/>
<path d="M557.948 613.249L599.689 579.008M255.436 559.46L540.735 627.45L557.948 613.249M557.948 613.249V288.791M599.689 579.008L737.82 465.694M599.689 579.008V255.873M737.82 465.694V468.233M737.82 465.694L739.972 463.929V145.244M737.82 468.233V473.827L603.992 583.897M35.9741 564.638V625.835L41.9985 627.297L540.735 754.823L774.546 544.399L776.549 542.677V474.687L737.82 468.233M603.992 583.897L546.329 631.323L540.735 636.056L248.12 566.345M603.992 583.897L632.393 592.538M238.653 575.381L248.12 566.345L255.436 559.46M292.873 523.747L279.103 536.883L255.436 559.46M540.735 627.45V235.862M75.5632 406.267V151.089L88.4727 126.561L282.258 0.269531L374.758 14.2695L385.758 16.2695M416.374 183.967L206.379 147.203L195.191 145.244L88.4727 126.561M385.758 16.2695L599.689 51.7695M385.758 16.2695L206.379 147.203M739.972 145.244V73.6324L599.689 51.7695M599.689 51.7695L416.374 183.967M739.972 73.6324L557.948 208.752M557.948 208.752L416.374 183.967M557.948 208.752L540.735 235.862M557.948 208.752V288.791M540.735 235.862L75.5632 151.089M739.972 145.244L599.689 255.873M63.084 446.134V427.353M44.1501 441.894L63.084 446.134L94.9274 453.264M82.8786 424.098L70.8297 421.274L67.3872 420.467L63.084 423.48V427.353M63.084 427.353L44.1501 441.894M63.084 423.48L94.9274 431.656M94.9274 431.656V453.264M94.9274 431.656V426.922M220.58 481.398L216.707 480.531L94.9274 453.264M70.8297 421.274L82.8786 411.861M82.8786 424.098L94.9274 426.922M82.8786 424.098V411.861M114.292 423.829L99.2306 420.467L94.9274 422.619V426.922M178.839 442.414L94.9274 422.619M178.839 442.414L183.142 439.196M216.277 477.269L192.179 471.675L178.839 442.414M195.191 467.802L183.142 439.196L114.292 423.829M114.292 423.829V404.316M192.179 471.675L195.191 467.802M220.58 481.398L219.719 473.396L195.191 467.802M216.277 477.269L219.719 473.396M216.277 477.269L216.707 480.531M238.653 486.306V485.445L220.58 481.398M114.292 404.316L82.8786 397.23M114.292 404.316V400.243M82.8786 400.673V397.23L87.1817 394.218L91.0546 395.079M114.292 400.243L104.394 398.043L91.0546 395.079M91.0546 395.079L94.9274 392.497M104.394 398.043V386.472M213.264 434.238L206.379 412.291L134.947 396.105L119.025 392.497L114.292 395.079V400.243M82.8786 411.861V400.673M32.1012 439.196L75.5632 406.267L82.8786 400.673M114.292 395.079L201.646 414.873M240.805 444.996L209.392 437.25L201.646 414.873M201.646 414.873L206.379 412.291M209.392 437.25L213.264 434.238M240.805 444.996L246.829 450.59M240.805 444.996L243.817 441.553M246.829 450.59L246.399 479.165M246.829 450.59L249.841 447.147M246.399 479.165L238.653 486.306M273.509 454.173L269.636 457.744L249.841 475.992L246.399 479.165M238.653 486.306V498.785M238.653 485.445L224.883 494.912M249.841 475.992V447.147L243.817 441.553L213.264 434.238M134.947 396.105V379.157M107.407 370.594L104.394 372.702V386.472M104.394 386.472L94.9274 392.497M104.394 372.702L134.947 379.157M134.947 379.157V374.854M121.607 372.23L124.189 372.738L134.947 374.854M154.174 369.876L139.25 366.678L134.947 369.69V374.854M107.407 370.594L108.698 369.69L121.607 372.23M107.407 370.594V224.243L121.607 226.977M121.607 372.23V226.977M124.189 372.738V342.58M129.783 340.299L128.492 339.998L124.189 342.58C124.189 354.344 124.189 360.974 124.189 372.738M226.174 389.485L134.947 369.69M226.174 389.485L229.617 386.042M264.902 417.025L234.35 409.279L226.174 389.485M237.793 406.267L229.617 386.042L154.174 369.876M154.311 346.023V349.896L154.174 369.876M234.35 409.279L237.793 406.267M273.509 454.173V418.746L268.345 413.582L237.793 406.267M264.902 417.025L268.345 413.582M264.902 417.025L269.636 421.758M269.636 421.758L273.509 418.746M269.636 421.758V457.744M273.509 454.173L289.861 439.099M540.735 667.469V754.823M540.735 667.469L238.653 593.455M776.549 474.687L632.393 592.538L540.735 667.469M41.9985 627.297V648.523L540.735 776.77L546.329 772.036L774.546 566.345V544.399M44.1501 441.894L32.1012 439.196L11.8764 434.668L0.257812 442.844V556.017L35.9741 564.638L224.883 610.237L238.653 599.049V593.455M224.883 610.237V494.912M238.653 593.455V575.381M94.9274 392.497V390.776L93.6365 204.018L320.413 247.145L331.602 236.292L365.166 241.886V255.656V556.017L279.103 536.883M0.257812 442.844L224.883 494.912M238.653 498.785V575.381M238.653 498.785L348.814 396.37M348.814 396.37V470.384M348.814 396.37V384.751M292.873 523.747L304.492 512.664L315.884 501.797L348.814 470.384M348.814 470.384V508.682M315.884 501.797L348.814 508.682M304.492 512.664L348.814 523.313M292.873 523.747L348.814 536.883V523.313M348.814 384.751L344.613 388.624L293.734 435.529L289.861 439.099M289.861 439.099V393.358M251.993 376.145L286.849 384.751L293.303 389.485L293.734 435.529M344.613 388.624L246.939 366.248M243.863 360.223L332.462 380.93L348.814 384.751M348.814 384.751V312.028M348.814 508.682V523.313M154.311 346.023V342.58L158.614 339.138M154.311 342.58L238.223 360.223M158.614 339.138L171.954 341.833M158.614 339.138V272.008M243.863 360.223L241.665 355.92L171.954 341.833M171.954 341.833V274.815L209.392 282.692M241.665 355.92L238.223 360.223M283.836 388.624L248.55 380.018L238.223 360.223M251.993 376.145L246.939 366.248L243.863 360.223M251.993 376.145L248.55 380.018M286.849 384.751L283.836 388.624M283.836 388.624L289.861 393.358M293.303 389.485L289.861 393.358M154.311 349.896L146.781 348.067L139.25 346.238L124.189 342.58M154.311 346.023L151.299 345.32L131.935 340.802L129.783 340.299M129.783 340.299V228.551M131.935 340.802V228.965M151.299 345.32V232.693M131.935 228.965L129.783 228.551L121.607 226.977M348.814 312.028L293.734 300.438L279.103 297.36L209.392 282.692L158.614 272.008M158.614 272.008V260.82M332.462 380.93V335.265L293.734 300.438M348.814 312.028V300.409M131.935 228.965L151.299 232.693M151.299 232.693L158.614 234.101M158.614 234.101V260.82M158.614 234.101L167.651 235.8M348.814 300.409L167.651 262.701L158.614 260.82M348.814 300.409V269.857L167.651 235.8M167.651 262.701V235.8M557.948 288.791L599.689 255.873M522.662 266.414L390.125 242.316V390.776L522.662 418.316V266.414ZM522.662 564.623L390.125 534.501V560.751L522.662 593.024V564.623Z" stroke="black" stroke-width="0.51638"/>
<circle cx="7.08478" cy="7.08478" r="7.08478" transform="matrix(0.970296 0.241922 -0.0174524 0.999848 408.519 544.012)" fill="white"/>
<circle cx="7.08478" cy="7.08478" r="7.08478" transform="matrix(0.970296 0.241922 -0.0174524 0.999848 428.613 549.02)" fill="white"/>
<circle cx="7.08478" cy="7.08478" r="7.08478" transform="matrix(0.970296 0.241922 -0.0174524 0.999848 448.707 554.027)" fill="white"/>
<circle cx="7.08478" cy="7.08478" r="7.08478" transform="matrix(0.970296 0.241922 -0.0174524 0.999848 468.802 559.039)" fill="white"/>
<circle cx="7.08478" cy="7.08478" r="6.64879" transform="matrix(0.970296 0.241922 -0.0174524 0.999848 488.896 564.051)" stroke="white" stroke-width="0.871973"/>
<path d="M145.777 258.346V253.612L142.298 254.849L138.819 256.085V260.819L145.777 258.346Z" fill="#0263EF"/>
<path d="M145.777 265.231L138.819 267.704V272.437L145.777 269.964V265.231Z" fill="#0263EF"/>
<path d="M145.777 276.849L138.819 279.322V284.056L145.777 281.583V276.849Z" fill="#0263EF"/>
<path d="M145.777 312.996L138.819 315.469V320.202L145.777 317.729V312.996Z" fill="#0263EF"/>
<path d="M145.777 325.045L138.819 327.518V332.251L145.777 329.778V325.045Z" fill="#0263EF"/>
<path d="M145.777 258.346V253.612L142.298 254.849L138.819 256.085V260.819L145.777 258.346Z" stroke="black" stroke-width="0.51638"/>
<path d="M145.777 265.231L138.819 267.704V272.437L145.777 269.964V265.231Z" stroke="black" stroke-width="0.51638"/>
<path d="M145.777 276.849L138.819 279.322V284.056L145.777 281.583V276.849Z" stroke="black" stroke-width="0.51638"/>
<path d="M145.777 312.996L138.819 315.469V320.202L145.777 317.729V312.996Z" stroke="black" stroke-width="0.51638"/>
<path d="M145.777 325.045L138.819 327.518V332.251L145.777 329.778V325.045Z" stroke="black" stroke-width="0.51638"/>
<path d="M86.2035 441.21L81.399 439.071V434.5L79.8467 433.809V438.769C79.8467 439.295 80.0367 439.886 80.3743 440.409L84.2974 446.486L85.395 445.763L82.4975 441.275L86.2044 442.925V441.212L86.2035 441.21Z" fill="white"/>
<path d="M74.0673 433.342L76.9648 437.83L73.2578 436.18V437.893L78.0624 440.033V444.604L79.6147 445.295V440.335C79.6147 439.808 79.4247 439.218 79.087 438.695L75.1649 432.619L74.0673 433.342Z" fill="white"/>
<path d="M104.869 414.857L99.9304 412.659V407.96L98.335 407.25V412.348C98.335 412.889 98.5302 413.496 98.8773 414.034L102.909 420.28L104.038 419.537L101.059 414.924L104.869 416.62V414.859L104.869 414.857Z" fill="white"/>
<path d="M92.3954 406.768L95.3735 411.382L91.5635 409.685V411.447L96.5016 413.645V418.344L98.0971 419.054V413.956C98.0971 413.415 97.9018 412.808 97.5547 412.27L93.5236 406.025L92.3954 406.768Z" fill="white"/>
<path d="M119.479 387.008L124.109 389.07L124.11 389.071V390.722L120.538 389.132L123.148 393.176L121.378 392.769L118.492 388.298C118.166 387.793 117.983 387.224 117.983 386.717V381.938L119.479 382.603V387.008Z" fill="white"/>
<path d="M112.415 381.487L115.207 385.813L111.635 384.222V385.874L116.264 387.935V392.34L117.76 393.006V388.226C117.76 387.719 117.577 387.15 117.252 386.646L113.472 380.791L112.415 381.487Z" fill="white"/>
<path d="M145.732 359.866L141.102 357.805V353.4L139.606 352.734V357.514C139.606 358.021 139.79 358.59 140.115 359.094L143.895 364.95L144.953 364.254L142.161 359.929L145.733 361.519V359.868L145.732 359.866Z" fill="white"/>
<path d="M134.038 352.284L136.83 356.609L133.258 355.019V356.67L137.887 358.732V363.136L139.383 363.802V359.023C139.383 358.515 139.2 357.946 138.875 357.442L135.095 351.588L134.038 352.284Z" fill="white"/>
<path fill-rule="evenodd" clip-rule="evenodd" d="M560.53 716.526V707.489L623.356 653.778V662.163L560.53 716.526Z" fill="#F1F1F3"/>
<path d="M560.53 707.489V716.526L623.356 662.163V653.778M560.53 707.489L623.356 653.778M560.53 707.489V674.355L618.821 625.729L620.775 624.099L623.356 621.945V653.778" stroke="black" stroke-width="0.51638"/>
<path fill-rule="evenodd" clip-rule="evenodd" d="M597.537 651.547L585.488 661.874V677.366L597.537 666.608V651.547ZM587.64 671.341L595.816 664.456V656.711L587.64 663.596V671.341Z" fill="#0263EF"/>
<path fill-rule="evenodd" clip-rule="evenodd" d="M595.816 664.456L587.64 671.341V663.596L595.816 656.711V664.456Z" fill="#2B2B2B"/>
<path fill-rule="evenodd" clip-rule="evenodd" d="M597.537 651.547L585.488 661.874V677.366L597.537 666.608V651.547ZM587.64 671.341L595.816 664.456V656.711L587.64 663.596V671.341Z" stroke="black" stroke-width="0.51638"/>
<path fill-rule="evenodd" clip-rule="evenodd" d="M595.816 664.456L587.64 671.341V663.596L595.816 656.711V664.456Z" stroke="black" stroke-width="0.51638"/>
<path fill-rule="evenodd" clip-rule="evenodd" d="M582.046 664.457L569.997 674.785V690.276L582.046 679.518V664.457ZM572.149 684.252L580.325 677.367V669.621L572.149 676.506V684.252Z" fill="#0263EF"/>
<path fill-rule="evenodd" clip-rule="evenodd" d="M580.325 677.367L572.149 684.252V676.506L580.325 669.621V677.367Z" fill="#2B2B2B"/>
<path fill-rule="evenodd" clip-rule="evenodd" d="M582.046 664.457L569.997 674.785V690.276L582.046 679.518V664.457ZM572.149 684.252L580.325 677.367V669.621L572.149 676.506V684.252Z" stroke="black" stroke-width="0.51638"/>
<path fill-rule="evenodd" clip-rule="evenodd" d="M580.325 677.367L572.149 684.252V676.506L580.325 669.621V677.367Z" stroke="black" stroke-width="0.51638"/>
<path fill-rule="evenodd" clip-rule="evenodd" d="M604.199 647.244L615.18 637.777V648.966L604.199 658.433V647.244Z" fill="#2B2B2B"/>
<path fill-rule="evenodd" clip-rule="evenodd" d="M604.199 658.433L615.18 648.966V651.547L602.701 662.305V648.535L604.199 647.244V658.433Z" fill="white"/>
<path d="M604.199 647.244L615.18 637.777V648.966M604.199 647.244V658.433L615.18 648.966M602.701 662.305C602.701 656.928 602.701 653.913 602.701 648.535L604.199 647.244M602.701 648.535V662.305L615.18 651.547V648.966" stroke="black" stroke-width="0.51638"/>
<path fill-rule="evenodd" clip-rule="evenodd" d="M143.554 528.907L153.881 520.3V538.804L143.554 546.55V528.907Z" fill="#0263EF"/>
<path fill-rule="evenodd" clip-rule="evenodd" d="M63.9453 509.973L143.554 528.907V546.55L63.9453 526.325V509.973Z" fill="#0054C9"/>
<path fill-rule="evenodd" clip-rule="evenodd" d="M65.2363 508.682L72.5516 501.797L153.881 520.3L143.554 528.907L63.9453 509.973L65.2363 508.682Z" fill="#0263EF"/>
<path d="M143.554 528.907L153.881 520.3M143.554 528.907V546.55M143.554 528.907L63.9453 509.973M63.9453 509.973V526.325L143.554 546.55L153.881 538.804V520.3L72.5516 501.797L65.2363 508.682L63.9453 509.973Z" stroke="black" stroke-width="0.51638"/>
<path fill-rule="evenodd" clip-rule="evenodd" d="M514.055 698.881V679.947L517.928 677.366V696.299L514.055 698.881Z" fill="#0054C9"/>
<path fill-rule="evenodd" clip-rule="evenodd" d="M517.928 677.366L514.055 679.947L485.654 673.062L489.527 670.48L517.928 677.366Z" fill="#0263EF"/>
<path fill-rule="evenodd" clip-rule="evenodd" d="M514.055 679.947V698.881L485.654 691.136V673.062L514.055 679.947Z" fill="#0263EF"/>
<path fill-rule="evenodd" clip-rule="evenodd" d="M474.466 690.276V671.342L478.339 668.76V687.694L474.466 690.276Z" fill="#0054C9"/>
<path fill-rule="evenodd" clip-rule="evenodd" d="M478.339 668.76L474.466 671.342L446.065 664.457L449.938 661.875L478.339 668.76Z" fill="#0263EF"/>
<path fill-rule="evenodd" clip-rule="evenodd" d="M474.466 671.342V690.276L446.065 682.53V664.457L474.466 671.342Z" fill="#0263EF"/>
<path d="M517.928 696.299V677.366L489.527 670.48L485.654 673.062V691.136L514.055 698.881L517.928 696.299Z" stroke="black" stroke-width="0.51638"/>
<path d="M478.339 687.694V668.76L449.938 661.875L446.065 664.457V682.53L474.466 690.276L478.339 687.694Z" stroke="black" stroke-width="0.51638"/>
<path fill-rule="evenodd" clip-rule="evenodd" d="M653.787 309.919L700.747 269.816V416.124L653.787 451.924V309.919Z" fill="#0054C9"/>
<path fill-rule="evenodd" clip-rule="evenodd" d="M653.787 309.919V451.924L649.175 450.837V308.402L653.787 309.919Z" fill="#0263EF"/>
<path fill-rule="evenodd" clip-rule="evenodd" d="M700.747 269.816L653.787 309.919L649.175 308.402L696.554 268.202L700.747 269.816Z" fill="#0263EF"/>
<path d="M653.787 309.919L700.747 269.816M653.787 309.919V451.924M653.787 309.919L649.175 308.402M649.175 308.402V450.837L653.787 451.924L700.747 416.124V269.816L696.554 268.202L649.175 308.402Z" stroke="black" stroke-width="0.344253"/>
<path fill-rule="evenodd" clip-rule="evenodd" d="M700.655 256.968L682.911 271.085L679.344 269.885L697.178 255.619L700.655 256.968Z" fill="#0263EF"/>
<path fill-rule="evenodd" clip-rule="evenodd" d="M682.911 271.085L700.655 256.968V267.067L679.037 285.627L682.911 271.085Z" fill="#0054C9"/>
<path fill-rule="evenodd" clip-rule="evenodd" d="M679.344 269.885L682.911 271.085L679.037 285.627L675.683 283.389L679.344 269.885Z" fill="#0263EF"/>
<path d="M700.655 256.968L682.911 271.085M679.037 285.627L675.683 283.389L679.344 269.885L697.178 255.619L700.655 256.968V267.067L679.037 285.627ZM682.911 271.085L679.344 269.885M682.911 271.085L679.037 285.627M700.655 267.067L700.496 267.007" stroke="black" stroke-width="0.344253"/>
<path d="M415.083 274.017L482.527 288.848L485.167 289.361L501.262 292.49V305.792L415.083 287.319V274.017Z" fill="#0263EF"/>
<path fill-rule="evenodd" clip-rule="evenodd" d="M501.262 285.353V292.49L485.167 289.361L491.193 283.361L501.262 285.353Z" fill="#0263EF"/>
<path d="M501.009 327.278V340.063L415.336 321.7V308.913L501.009 327.278Z" fill="#D9D9D9" stroke="black" stroke-width="0.51638"/>
<path d="M501.009 345.899V358.684L415.336 340.321V327.535L501.009 345.899Z" fill="#D9D9D9" stroke="black" stroke-width="0.51638"/>
<path d="M501.009 365.559V378.344L415.336 359.981V347.195L501.009 365.559Z" fill="#D9D9D9" stroke="black" stroke-width="0.51638"/>
<path d="M501.009 383.633V396.418L415.336 378.055V365.269L501.009 383.633Z" fill="#D9D9D9" stroke="black" stroke-width="0.51638"/>
<rect width="131.414" height="3.07729" transform="matrix(0.980955 0.194235 -0.00349116 0.999994 392.334 469.062)" fill="#0263EF"/>
<rect width="131.414" height="3.07729" transform="matrix(0.980955 0.194235 -0.00349116 0.999994 392.309 476.543)" fill="#0263EF"/>
<rect width="131.414" height="3.07729" transform="matrix(0.980955 0.194235 -0.00349116 0.999994 392.28 484.543)" fill="#0263EF"/>
</svg>
