<svg width="992" height="1120" viewBox="0 0 992 1120" fill="none" xmlns="http://www.w3.org/2000/svg">
<path d="M407.233 0C475.621 0 495.762 54.8799 495.762 122.441V358.578H610.849V267.861C610.849 223.79 628.571 181.524 660.115 150.361L678.424 132.274C674.815 123.879 672.819 114.645 672.819 104.95C672.819 66.3082 704.528 34.9832 743.642 34.9832C782.757 34.9832 814.465 66.3082 814.465 104.95C814.465 143.591 782.757 174.916 743.642 174.916C733.828 174.916 724.481 172.944 715.983 169.379L697.675 187.466C676.091 208.788 663.966 237.707 663.966 267.861V358.578H855.025C865.531 332.936 890.977 314.849 920.7 314.849C959.814 314.849 991.523 346.174 991.523 384.815C991.523 423.456 959.814 454.781 920.7 454.781C890.977 454.781 865.531 436.693 855.025 411.052H495.762V568.477H677.967C688.474 542.835 713.92 524.748 743.642 524.748C782.757 524.748 814.465 556.073 814.465 594.714C814.465 633.355 782.757 664.68 743.642 664.68C713.92 664.68 688.474 646.593 677.967 620.951H495.762V778.376H649.559C694.17 778.376 736.953 795.883 768.498 827.046L857.629 915.099C866.127 911.534 875.475 909.562 885.288 909.562C924.403 909.562 956.111 940.887 956.111 979.529C956.111 1018.17 924.403 1049.5 885.288 1049.5C846.174 1049.5 814.465 1018.17 814.465 979.529C814.465 969.834 816.461 960.599 820.07 952.204L730.938 864.151C709.355 842.829 680.082 830.85 649.559 830.85H495.762V997.02C495.762 1064.58 475.621 1119.46 407.233 1119.46C343.271 1119.46 290.596 1071.58 283.956 1009.92C272.448 1012.98 260.275 1014.51 247.881 1014.51C169.754 1014.51 106.235 951.761 106.235 874.579C106.235 858.4 109.112 842.657 114.202 828.227C47.3629 803.301 0 739.457 0 664.68C0 594.933 41.3872 534.587 101.366 506.6C82.1105 482.768 70.8231 452.595 70.8231 419.798C70.8231 352.674 118.629 296.701 182.369 282.926C178.828 270.901 177.058 258.001 177.058 244.882C177.058 179.507 222.65 124.409 283.956 109.104C290.596 47.8832 343.271 0 407.233 0Z" fill="white" fill-opacity="0.8"/>
</svg>
