<svg width="1196" height="845" viewBox="0 0 1196 845" fill="none" xmlns="http://www.w3.org/2000/svg">
<path fill-rule="evenodd" clip-rule="evenodd" d="M1195.28 458.279V502.485L1145.47 533.716L1139.47 556.498L966.245 661.353V596.817L1195.28 458.279Z" fill="white"/>
<path fill-rule="evenodd" clip-rule="evenodd" d="M1195.28 458.279L966.245 596.817L737.212 735.356L368.841 603.276L0.46875 471.196L217.323 349.186L434.178 227.176L814.727 342.727L1195.28 458.279Z" fill="white"/>
<path fill-rule="evenodd" clip-rule="evenodd" d="M737.212 804.908V844.485L0.46875 573.3V471.196L368.841 603.276L737.212 735.356V765.331L458.065 665.569V703.507L737.212 804.908Z" fill="white"/>
<path fill-rule="evenodd" clip-rule="evenodd" d="M941.421 678.215L737.212 804.908V765.331L941.421 641.682V678.215Z" fill="#0049AF"/>
<path fill-rule="evenodd" clip-rule="evenodd" d="M458.065 665.569L737.212 765.331V804.908L458.065 703.507V665.569Z" fill="#0263EF"/>
<path fill-rule="evenodd" clip-rule="evenodd" d="M1145.47 533.716L1195.28 502.485V522.716V560.186L737.212 844.485V804.908L941.421 678.215V641.682L737.212 765.331V735.356L966.245 596.817V661.353L1139.47 556.498L1145.47 533.716Z" fill="#E4E4E5"/>
<path d="M217.323 349.186L434.178 227.176L814.727 342.727L1195.28 458.279V502.485M1195.28 458.279L966.245 596.817M1195.28 502.485L1145.47 533.716L1139.47 556.498L966.245 661.353V596.817M217.323 349.186L0.46875 471.196V573.3L737.212 844.485L1195.28 560.186V522.716V502.485M966.245 596.817L737.212 735.356M966.245 596.817L591.784 473.001M0.46875 471.196L368.841 603.276L737.212 735.356M737.212 735.356V765.331M368.841 603.276L591.784 473.001M217.323 349.186L550.333 459.296L591.784 473.001M814.727 342.727L591.784 473.001M737.212 804.908V844.485M737.212 804.908L458.065 703.507V665.569L737.212 765.331M737.212 804.908L941.421 678.215V641.682L737.212 765.331M737.212 804.908V765.331" stroke="black" stroke-width="0.936737"/>
<path d="M697.991 296.884L690.396 293.756V266.951L697.991 265.164V270.078V296.884Z" fill="#0263EF"/>
<path d="M690.396 266.951V293.756L697.991 296.884V265.164L690.396 266.951ZM690.396 266.951L697.991 270.078" stroke="black" stroke-width="0.625454"/>
<path d="M697.991 345.204L690.396 342.077V315.271L697.991 313.484V318.399V345.204Z" fill="#0263EF"/>
<path d="M690.396 315.271V342.077L697.991 345.204V313.484L690.396 315.271ZM690.396 315.271L697.991 318.399" stroke="black" stroke-width="0.625454"/>
<path fill-rule="evenodd" clip-rule="evenodd" d="M854.565 150.797L696.596 233.658V485.147L646.686 512.768V541.115V569.462L786.241 616.949V561.709L835.182 533.941L856.503 521.844L991.212 445.413L938.879 428.938V447.351L786.241 536.027V262.732L938.879 178.902L854.565 150.797ZM907.383 235.111L820.161 285.022V319.669V481.529L907.383 429.165V271.42V235.111Z" fill="white"/>
<path d="M907.383 235.111L820.161 285.022V319.669V481.529L907.383 429.165V271.42V235.111Z" fill="#E4E4E5"/>
<path d="M760.074 296.248L718.402 283.083V472.064L760.074 487.086V296.248Z" fill="#0263EF"/>
<path fill-rule="evenodd" clip-rule="evenodd" d="M588.538 573.338L646.686 541.115V569.462L786.241 616.949L835.182 588.14L856.503 575.589L991.212 496.292V467.703L1052.27 488.539L786.241 643.6L588.538 573.338Z" fill="white"/>
<path d="M856.503 521.844L991.212 445.413V467.703V496.292L856.503 575.589L835.182 588.14L786.241 616.949V561.709L835.182 533.941L856.503 521.844Z" fill="#E4E4E5"/>
<path fill-rule="evenodd" clip-rule="evenodd" d="M786.241 684.304V643.6L1052.27 488.539V528.274L786.241 684.304Z" fill="#0049AF"/>
<path fill-rule="evenodd" clip-rule="evenodd" d="M786.241 262.732L938.879 178.902V428.938V447.351L786.241 536.027V262.732ZM820.161 285.022L907.383 235.111V271.42V429.165L820.161 481.529V319.669V285.022Z" fill="#E4E4E5"/>
<path fill-rule="evenodd" clip-rule="evenodd" d="M588.538 573.338L786.241 643.6V684.304L588.538 612.104V573.338Z" fill="#0263EF"/>
<path d="M696.596 485.147V233.658L854.565 150.797L938.879 178.902V428.938M696.596 233.658L786.241 262.732M646.686 541.115V512.768L696.596 485.147M938.879 428.938V447.351L786.241 536.027L696.596 503.076V485.147M646.686 512.768L786.241 561.709M991.212 467.703V496.292L856.503 575.589L835.182 588.14L786.241 616.949L646.686 569.462V541.115M991.212 467.703L1052.27 488.539V528.274L786.241 684.304L588.538 612.104V573.338L646.686 541.115M786.241 616.949V561.709M786.241 561.709L835.182 533.941L856.503 521.844L991.212 445.413M991.212 467.703V445.413L938.879 428.938M786.241 536.027V262.732M786.241 262.732L938.879 178.902M588.538 573.338L786.241 643.6M1052.27 488.539L786.241 643.6M786.241 643.6V684.304M820.161 319.669V285.022L907.383 235.111V271.42M820.161 319.669V481.529L907.383 429.165V271.42M820.161 319.669L907.383 271.42M820.16 355.41L907.382 307.16M820.16 391.15L907.382 342.901M820.16 424.21L907.382 375.96M760.074 296.248L718.402 283.083V472.064L760.074 487.086V296.248Z" stroke="black" stroke-width="0.625454"/>
<circle cx="5.80779" cy="5.80779" r="5.45039" transform="matrix(0.866025 -0.5 0 1 830.678 439.84)" fill="#0263EF" stroke="black" stroke-width="0.714805"/>
<circle cx="5.80779" cy="5.80779" r="5.45039" transform="matrix(0.866025 -0.5 0 1 845.381 431.352)" fill="#0263EF" stroke="black" stroke-width="0.714805"/>
<circle cx="5.80779" cy="5.80779" r="5.45039" transform="matrix(0.866025 -0.5 0 1 860.082 422.863)" fill="#0263EF" stroke="black" stroke-width="0.714805"/>
<circle cx="5.80779" cy="5.80779" r="5.45039" transform="matrix(0.866025 -0.5 0 1 874.785 414.375)" fill="#0263EF" stroke="black" stroke-width="0.714805"/>
<circle cx="5.80779" cy="5.80779" r="5.45039" transform="matrix(0.866025 -0.5 0 1 889.486 405.887)" fill="#0263EF" stroke="black" stroke-width="0.714805"/>
<path fill-rule="evenodd" clip-rule="evenodd" d="M260.434 76.8792L406.075 0.484375L483.81 26.3961L343.083 103.684V355.653L483.81 273.897V256.921L532.059 272.11L407.862 342.577V392.128L532.059 319.019V292.661L588.35 311.871L343.083 454.832L160.808 390.053L214.418 360.344V334.209L260.434 308.744V76.8792ZM343.083 379.331V430.261L388.205 403.7V353.73L343.083 379.331Z" fill="white"/>
<path d="M343.083 492.359V454.832L588.35 311.871V348.505L343.083 492.359Z" fill="#0049AF"/>
<path fill-rule="evenodd" clip-rule="evenodd" d="M532.059 272.11V292.661V319.019L407.862 392.128V342.577L532.059 272.11Z" fill="#E4E4E5"/>
<path fill-rule="evenodd" clip-rule="evenodd" d="M160.808 390.053L343.083 454.832V492.359L160.808 425.793V390.053Z" fill="#0263EF"/>
<path fill-rule="evenodd" clip-rule="evenodd" d="M343.083 430.261V379.331L388.205 353.73V403.7L343.083 430.261Z" fill="#E4E4E5"/>
<path fill-rule="evenodd" clip-rule="evenodd" d="M483.81 256.921V273.897L343.083 355.653V103.684L483.81 26.3961V256.921ZM374.356 124.235L454.771 78.2194V259.601L374.356 302.936V124.235Z" fill="#E4E4E5"/>
<path d="M454.771 78.2194L374.356 124.235V302.936L454.771 259.601V78.2194Z" fill="#E4E4E5"/>
<path d="M260.434 308.744V76.8792L406.075 0.484375L483.81 26.3961V256.921M260.434 76.8792L343.083 103.684M483.81 26.3961L343.083 103.684M343.083 103.684V355.653M260.434 308.744V325.274L343.083 355.653L483.81 273.897V256.921M532.059 292.661V272.11L483.81 256.921M532.059 272.11L407.862 342.577M407.862 342.577V392.128M407.862 342.577L388.205 353.73M407.862 392.128L532.059 319.019V292.661M214.418 360.344V386.479L343.083 430.261L388.205 403.7L407.862 392.128M214.418 360.344L160.808 390.053V425.793L343.083 492.359L588.35 348.505V311.871L532.059 292.661M588.35 311.871L343.083 454.832M343.083 454.832L160.808 390.053M343.083 454.832V492.359M260.434 308.744L214.418 334.209V360.344M214.418 334.209L343.083 379.331M343.083 379.331V430.261M343.083 379.331L388.205 353.73M388.205 403.7V353.73M374.356 124.235L454.771 78.2194V259.601L374.356 302.936V124.235Z" stroke="black" stroke-width="0.893506"/>
<path d="M281.431 116.641L318.958 129.15V313.212L281.431 299.363L281.431 116.641Z" fill="#0263EF"/>
<path d="M281.431 116.641L318.958 129.15V313.212L281.431 299.363L281.431 116.641Z" stroke="black" stroke-width="0.893506"/>
<path fill-rule="evenodd" clip-rule="evenodd" d="M395.648 364.181L402.602 360.264V368.849L395.648 373.195V364.181Z" fill="#0054C9"/>
<path fill-rule="evenodd" clip-rule="evenodd" d="M395.648 364.181V373.195L393.287 372.122V362.893L395.648 364.181Z" fill="#0263EF"/>
<path fill-rule="evenodd" clip-rule="evenodd" d="M402.602 360.264L395.648 364.181L393.287 362.893L400.455 358.977L402.602 360.264Z" fill="#0263EF"/>
<path d="M400.541 358.833L402.687 360.121L402.768 360.17V368.942L402.69 368.992L395.736 373.338L395.66 373.385L395.578 373.348L393.217 372.275L393.119 372.23V362.799L400.455 358.781L400.541 358.833ZM393.454 362.988V372.014L395.634 373.006L402.434 368.756V360.359L400.455 359.172L393.454 362.988Z" fill="black"/>
<path d="M312.607 282.949L303.454 278.874V270.164L300.496 268.848V278.297C300.496 279.301 300.858 280.426 301.501 281.423L308.975 293.001L311.067 291.624L305.546 283.072L312.609 286.216V282.952L312.607 282.949Z" fill="white"/>
<path d="M289.486 267.956L295.006 276.508L287.943 273.363V276.628L297.097 280.703V289.413L300.054 290.729V281.28C300.054 280.276 299.692 279.151 299.049 278.154L291.577 266.579L289.486 267.956Z" fill="white"/>
<path fill-rule="evenodd" clip-rule="evenodd" d="M395.648 381.158L402.602 377.241V385.826L395.648 390.172V381.158Z" fill="#0054C9"/>
<path fill-rule="evenodd" clip-rule="evenodd" d="M395.648 381.158V390.172L393.287 389.099V379.87L395.648 381.158Z" fill="#0263EF"/>
<path fill-rule="evenodd" clip-rule="evenodd" d="M402.602 377.241L395.648 381.158L393.287 379.87L400.455 375.953L402.602 377.241Z" fill="#0263EF"/>
<path d="M400.541 375.81L402.687 377.098L402.768 377.146V385.919L402.69 385.968L395.736 390.314L395.66 390.362L395.578 390.325L393.217 389.251L393.119 389.207V379.775L400.455 375.758L400.541 375.81ZM393.454 379.964V388.991L395.634 389.982L402.434 385.733V377.335L400.455 376.148L393.454 379.964Z" fill="black"/>
<path fill-rule="evenodd" clip-rule="evenodd" d="M395.083 134.751V161.613L411.165 153.058V126.574L395.083 134.751Z" fill="white"/>
<path fill-rule="evenodd" clip-rule="evenodd" d="M395.083 134.751L411.165 126.574L404.164 124.682L388.651 133.006L395.083 134.751Z" fill="#0263EF"/>
<path fill-rule="evenodd" clip-rule="evenodd" d="M395.083 161.613V134.751L388.651 133.006V160.1L395.083 161.613Z" fill="#0263EF"/>
<path d="M395.083 134.751V161.613M395.083 134.751L411.165 126.574M395.083 134.751L388.651 133.006M388.651 133.006L404.164 124.682L411.165 126.574V153.058L395.083 161.613L388.651 160.1V133.006Z" stroke="black" stroke-width="0.529686"/>
<path fill-rule="evenodd" clip-rule="evenodd" d="M395.083 182.551V209.414L411.165 200.859V174.375L395.083 182.551Z" fill="white"/>
<path fill-rule="evenodd" clip-rule="evenodd" d="M395.083 182.551L411.165 174.375L404.164 172.483L388.651 180.807L395.083 182.551Z" fill="#0263EF"/>
<path fill-rule="evenodd" clip-rule="evenodd" d="M395.083 209.414V182.551L388.651 180.807V207.901L395.083 209.414Z" fill="#0263EF"/>
<path d="M395.083 182.551V209.414M395.083 182.551L411.165 174.375M395.083 182.551L388.651 180.807M388.651 180.807L404.164 172.483L411.165 174.375V200.859L395.083 209.414L388.651 207.901V180.807Z" stroke="black" stroke-width="0.529686"/>
<path fill-rule="evenodd" clip-rule="evenodd" d="M428.143 116.88L421.711 115.135V142.229L428.143 143.742V116.88Z" fill="#0263EF"/>
<path fill-rule="evenodd" clip-rule="evenodd" d="M421.711 115.135L428.143 116.88L444.225 108.703L437.223 106.811L421.711 115.135Z" fill="#0263EF"/>
<path fill-rule="evenodd" clip-rule="evenodd" d="M428.143 116.88V143.742L444.225 135.187V108.703L428.143 116.88Z" fill="white"/>
<path d="M428.143 116.88L421.711 115.135M428.143 116.88V143.742M428.143 116.88L444.225 108.703M444.225 108.703V135.187L428.143 143.742L421.711 142.229V115.135L437.223 106.811L444.225 108.703Z" stroke="black" stroke-width="0.529686"/>
<path fill-rule="evenodd" clip-rule="evenodd" d="M430.901 164.551L424.469 162.807V189.901L430.901 191.414V164.551Z" fill="#0263EF"/>
<path fill-rule="evenodd" clip-rule="evenodd" d="M424.469 162.807L430.901 164.551L446.983 156.375L439.981 154.483L424.469 162.807Z" fill="#0263EF"/>
<path fill-rule="evenodd" clip-rule="evenodd" d="M430.901 164.551V191.414L446.983 182.859V156.375L430.901 164.551Z" fill="white"/>
<path d="M430.901 164.551L424.469 162.807M430.901 164.551V191.414M430.901 164.551L446.983 156.375M446.983 156.375V182.859L430.901 191.414L424.469 189.901V162.807L439.981 154.483L446.983 156.375Z" stroke="black" stroke-width="0.529686"/>
<path d="M565.974 273.576C499.301 259.662 420.295 158.892 405.543 140.067C404.801 139.121 401.785 139.711 400.924 141.931C400.166 143.885 401.091 145.697 402.244 147.046C408.373 154.226 424.684 178.1 437.896 191.876C463.745 218.828 478.45 234.609 506.88 253.453C530.257 268.947 543.848 278.393 568.941 282.832C591.688 286.857 603.209 287.453 625.338 288.435L626.056 288.467C646.763 289.386 679.71 289.272 690.589 286.857V273.978C675.78 276.894 622.375 285.346 565.974 273.576Z" fill="#24E9FF" stroke="black" stroke-width="0.536104"/>
<path d="M565.974 321.38C499.301 307.467 420.295 206.697 405.543 187.872C404.801 186.925 401.785 187.516 400.924 189.736C400.166 191.69 401.091 193.501 402.244 194.851C408.373 202.03 424.684 225.905 437.896 239.681C463.745 266.632 478.45 282.414 506.88 301.257C530.257 316.752 543.848 326.198 568.941 330.637C591.688 334.661 603.209 335.257 625.338 336.239L626.056 336.271C646.763 337.191 679.71 337.076 690.589 334.661V321.783C675.78 324.699 622.375 333.15 565.974 321.38Z" fill="#24E9FF" stroke="black" stroke-width="0.536104"/>
<path d="M592.539 251.641C529.137 238.017 452.225 140.264 438.197 121.832C437.325 120.686 434.275 121.55 433.456 123.723C432.735 125.636 433.964 127.344 435.059 128.665C440.888 135.695 458.18 158.154 470.745 171.644C495.325 198.033 509.309 213.486 536.344 231.937C558.574 247.109 571.499 256.357 595.36 260.704C616.992 264.645 627.948 263.652 648.99 264.614L649.674 264.645C669.601 263.165 686.118 259.618 696.463 257.254V247.306C682.381 250.161 646.173 263.165 592.539 251.641Z" fill="#24E9FF" stroke="black" stroke-width="0.536104"/>
<path d="M594.211 303.966C531.827 289.803 456.149 188.176 442.346 169.014C441.469 168.486 438.487 168.72 437.681 170.98C436.971 172.969 437.39 174.112 438.469 175.486C444.204 182.794 462.008 206.776 474.371 220.8C498.557 248.235 512.317 264.3 538.918 283.482C560.791 299.255 573.509 308.87 596.988 313.389C618.272 317.486 629.052 316.454 649.757 317.454L650.43 317.486C670.038 315.947 686.289 312.26 696.469 309.802V299.46C682.612 302.428 646.985 315.948 594.211 303.966Z" fill="#24E9FF" stroke="black" stroke-width="0.527503"/>
<path d="M843.532 285.719L829.48 294.149V300.238L843.532 291.808V285.719Z" fill="#0263EF" stroke="black" stroke-width="0.562042"/>
<path d="M843.532 320.848L829.48 329.278V335.367L843.532 326.936V320.848Z" fill="#0263EF" stroke="black" stroke-width="0.562042"/>
<path d="M843.532 356.445L829.48 364.876V370.965L843.532 362.534V356.445Z" fill="#0263EF" stroke="black" stroke-width="0.562042"/>
<path d="M843.532 392.039L829.48 400.47V406.558L843.532 398.128V392.039Z" fill="#0263EF" stroke="black" stroke-width="0.562042"/>
<path d="M555.953 346.403V352.492L562.51 348.483V342.395L555.953 346.403Z" fill="white" stroke="black" stroke-width="0.562042"/>
<path d="M565.321 340.782V346.871L571.878 342.862V336.773L565.321 340.782Z" fill="white" stroke="black" stroke-width="0.562042"/>
<path d="M0.46875 543.325V505.387L140.043 555.268V594.025L0.46875 543.325Z" fill="#0263EF" stroke="black" stroke-width="0.936737"/>
</svg>
