<svg width="791" height="747" viewBox="0 0 791 747" fill="none" xmlns="http://www.w3.org/2000/svg">
<path fill-rule="evenodd" clip-rule="evenodd" d="M210.202 541.298L237.517 524.391L249.856 531.709V587.953V610.752L76.3906 503.433V462.453L210.202 541.298Z" fill="#F4F4F7"/>
<path fill-rule="evenodd" clip-rule="evenodd" d="M283.239 496.453L296.23 504.571L249.73 532.152L237.391 524.834L283.239 496.453Z" fill="#F4F4F7"/>
<path fill-rule="evenodd" clip-rule="evenodd" d="M131.221 312.128V364.317L119.027 357.182V289.203L323.884 409.678V478.059L320.469 476.064L311.202 470.648V468.697V451.625V437.968V420.409L179.021 340.885L173.168 337.364L152.194 324.746L147.805 322.105L131.221 312.128Z" fill="#0263EF"/>
<path fill-rule="evenodd" clip-rule="evenodd" d="M283.4 499.01L294.131 492.368L386.316 549.664L553.616 451.625L564.834 457.966L386.316 563.321L296.391 507.128L283.4 499.01Z" fill="#E9E9F0"/>
<path fill-rule="evenodd" clip-rule="evenodd" d="M257.253 182.873L239.99 172.63L327.786 120.245L386.316 85.3223V105.808L257.253 182.873Z" fill="#BDBFC8"/>
<path fill-rule="evenodd" clip-rule="evenodd" d="M386.316 85.3223L449.236 122.009L536.057 172.63L518.391 182.873L386.316 105.808V85.3223Z" fill="#E9E9F0"/>
<path fill-rule="evenodd" clip-rule="evenodd" d="M89.7619 374.072L106.346 384.803L99.1153 389.193L70.7395 371.34L89.7619 359.684V374.072Z" fill="#E9E9F0"/>
<path fill-rule="evenodd" clip-rule="evenodd" d="M119.027 357.182L131.221 364.317L147.805 353.661L152.194 350.841L173.168 337.364L179.021 340.885L143.171 363.138L106.346 384.803L89.7619 374.072V359.684V340.056L119.027 357.182Z" fill="#002F73"/>
<path fill-rule="evenodd" clip-rule="evenodd" d="M147.805 322.105L152.194 324.746V350.841L147.805 353.661V322.105Z" fill="#1149A3"/>
<path fill-rule="evenodd" clip-rule="evenodd" d="M152.194 324.746L173.168 337.364L152.194 350.841V324.746Z" fill="#000C1C"/>
<path fill-rule="evenodd" clip-rule="evenodd" d="M131.221 364.317V312.128L147.805 322.105V353.661L131.221 364.317Z" fill="#0263EF"/>
<path fill-rule="evenodd" clip-rule="evenodd" d="M386.316 259.45L452.353 221.162L550.689 279.846L386.316 380.901L225.845 286.277L327.786 224.722L386.316 259.45Z" fill="white"/>
<path fill-rule="evenodd" clip-rule="evenodd" d="M536.057 172.63L449.236 122.009L518.391 77.9883L702.868 186.287L564.834 271.15L550.689 279.846L452.353 221.162L518.391 182.873L536.057 172.63Z" fill="white"/>
<path fill-rule="evenodd" clip-rule="evenodd" d="M239.99 172.63L257.253 182.873L327.786 224.722L225.845 286.277L65.3742 191.653L257.253 77.3417L327.786 120.245L239.99 172.63Z" fill="white"/>
<path fill-rule="evenodd" clip-rule="evenodd" d="M327.786 120.245L257.253 77.3417L386.316 0.453125L518.391 77.9883L449.236 122.009L386.316 85.3223L327.786 120.245Z" fill="white"/>
<path fill-rule="evenodd" clip-rule="evenodd" d="M119.027 289.203V357.182L89.7619 340.056L65.3742 325.785V191.653L225.845 286.277L386.316 380.901V514.546L323.884 478.059V409.678L119.027 289.203Z" fill="white"/>
<path fill-rule="evenodd" clip-rule="evenodd" d="M553.616 410.783L386.316 514.546V380.901L550.689 279.846L564.834 271.15V403.825L553.616 410.783Z" fill="#E4E4E5"/>
<path fill-rule="evenodd" clip-rule="evenodd" d="M275.108 549.664L386.316 615.023V697.453L275.596 629.655L275.108 549.664Z" fill="white"/>
<path fill-rule="evenodd" clip-rule="evenodd" d="M70.7395 371.34L99.1153 389.193L65.3742 409.678V423.336L24.8906 399.436L70.7395 371.34Z" fill="white"/>
<path fill-rule="evenodd" clip-rule="evenodd" d="M564.834 271.15L702.868 186.287V343.832V375.048L564.834 457.966V403.825V271.15Z" fill="#E4E4E5"/>
<path fill-rule="evenodd" clip-rule="evenodd" d="M320.469 476.064L323.884 478.059L386.316 514.546L553.616 410.783V451.625L386.316 549.664L294.131 492.368L320.469 476.064Z" fill="#002F73"/>
<path fill-rule="evenodd" clip-rule="evenodd" d="M564.834 457.966L553.616 451.625V410.783L564.834 403.825V457.966Z" fill="#BDBFC8"/>
<path fill-rule="evenodd" clip-rule="evenodd" d="M311.202 420.409V437.968L210.237 497.474L65.3742 409.678L99.1153 389.193L106.346 384.803L143.171 363.138L179.021 340.885L311.202 420.409Z" fill="white"/>
<path fill-rule="evenodd" clip-rule="evenodd" d="M65.3742 427.238V423.336V409.678L210.237 497.474V514.546L65.3742 427.238Z" fill="white"/>
<path fill-rule="evenodd" clip-rule="evenodd" d="M65.3742 443.09V427.238L210.237 514.546V530.154L65.3742 443.09Z" fill="white"/>
<path fill-rule="evenodd" clip-rule="evenodd" d="M311.202 451.625V468.697L210.237 530.154V514.546L311.202 451.625Z" fill="white"/>
<path fill-rule="evenodd" clip-rule="evenodd" d="M311.202 437.968V451.625L210.237 514.546V497.474L311.202 437.968Z" fill="white"/>
<path fill-rule="evenodd" clip-rule="evenodd" d="M311.202 470.648L320.469 476.064L294.131 492.368L283.4 499.01L237.551 527.391L210.237 544.298V530.154L311.202 468.697V470.648Z" fill="white"/>
<path fill-rule="evenodd" clip-rule="evenodd" d="M65.3742 458.942V443.09L210.237 530.154V544.298L76.4252 465.453L65.3742 458.942Z" fill="white"/>
<path fill-rule="evenodd" clip-rule="evenodd" d="M386.316 105.808L518.391 182.873L452.353 221.162L386.316 259.45L327.786 224.722L257.253 182.873L386.316 105.808Z" fill="white"/>
<path fill-rule="evenodd" clip-rule="evenodd" d="M0.390625 474.55L386.316 712.953V745.953L0.390625 502.953V474.55Z" fill="#0263EF"/>
<path fill-rule="evenodd" clip-rule="evenodd" d="M275.596 629.655L386.316 697.453L758.472 457.966L762.862 455.04V437.953L789.891 451.625L386.316 712.953L0.390625 474.55L24.8906 461.453L24.8906 474.55L76.4252 506.433L249.891 613.752L275.596 629.655Z" fill="#E9E9F0"/>
<path fill-rule="evenodd" clip-rule="evenodd" d="M386.316 745.953V712.953L789.891 451.625V482.453L386.316 745.953Z" fill="#0054C9"/>
<path fill-rule="evenodd" clip-rule="evenodd" d="M386.316 563.321L564.834 457.966L702.868 375.048V343.832L762.862 380.901L386.316 615.023L275.108 549.664L249.891 534.709L237.551 527.391L283.4 499.01L296.391 507.128L386.316 563.321Z" fill="white"/>
<path fill-rule="evenodd" clip-rule="evenodd" d="M386.316 697.453V615.023L762.862 380.901V437.953V455.04L758.472 457.966L386.316 697.453Z" fill="#E4E4E5"/>
<path fill-rule="evenodd" clip-rule="evenodd" d="M275.108 549.664L275.596 629.655L249.891 613.752L76.4252 506.433L24.8906 474.55L24.8906 461.453L24.8906 399.436L65.3742 423.336V427.238V443.09V458.942L76.4252 465.453L210.237 544.298L237.551 527.391L249.891 534.709L275.108 549.664Z" fill="white"/>
<path d="M131.221 364.317V312.128L147.805 322.105M147.805 353.661L131.221 364.317L119.027 357.182M119.027 357.182V289.203L323.884 409.678V478.059M119.027 357.182L89.7619 340.056M564.834 403.825L553.616 410.783L386.316 514.546L323.884 478.059L320.469 476.064L311.202 470.648V468.697M283.4 499.01L294.131 492.368L320.469 476.064M311.202 468.697V451.625M311.202 468.697L210.237 530.154M311.202 451.625V437.968M311.202 451.625L210.237 514.546M311.202 437.968V420.409L179.021 340.885M311.202 437.968L210.237 497.474M147.805 322.105L152.194 324.746L173.168 337.364L179.021 340.885M179.021 340.885L143.171 363.138L106.346 384.803M147.805 353.661L152.194 350.841L173.168 337.364M152.194 324.746V350.841M147.805 322.105V353.661M702.868 343.832C702.868 353.654 702.868 363.986 702.868 375.048L564.834 457.966L386.316 563.321L296.391 507.128L283.4 499.01M283.4 499.01L237.551 527.391M294.131 492.368L386.316 549.664L553.616 451.625M553.616 451.625L564.834 457.966M553.616 451.625V410.783M564.834 457.966V403.825M452.353 221.162L386.316 259.45L327.786 224.722L257.253 182.873L239.99 172.63L327.786 120.245L386.316 85.3223L449.236 122.009L536.057 172.63L518.391 182.873M257.253 182.873L386.316 105.808M327.786 120.245L257.253 77.3417M386.316 85.3223V105.808M386.316 105.808L518.391 182.873M449.236 122.009L518.391 77.9883M518.391 182.873L452.353 221.162M106.346 384.803L89.7619 374.072V359.684M65.3742 423.336V409.678L99.1153 389.193L106.346 384.803M99.1153 389.193L70.7395 371.34M24.8906 461.453L24.8906 399.436L70.7395 371.34L89.7619 359.684M89.7619 359.684V340.056M702.868 343.832V186.287L518.391 77.9883L386.316 0.453125L257.253 77.3417L65.3742 191.653V325.785L89.7619 340.056M452.353 221.162L550.689 279.846M702.868 186.287L564.834 271.15L550.689 279.846L386.316 380.901M65.3742 191.653L225.845 286.277L386.316 380.901M386.316 380.901V514.546M225.845 286.277L327.786 224.722M702.868 186.287C702.868 248.941 702.868 288.199 702.868 343.832M564.834 271.15V403.825M275.108 549.664L386.316 615.023M275.108 549.664L275.596 629.655M275.108 549.664L249.891 534.709L237.551 527.391M386.316 615.023V697.453M386.316 615.023L762.862 380.901M762.862 437.953V455.04L758.472 457.966L386.316 697.453L275.596 629.655L249.891 613.752L76.4252 506.433L24.8906 474.55C24.8906 474.55 24.8906 469.486 24.8906 461.453M65.3742 409.678L210.237 497.474M65.3742 423.336L24.8906 399.436M65.3742 423.336V427.238M24.8906 399.436C24.8906 421.412 24.8906 446.546 24.8906 461.453M702.868 343.832V375.048M762.862 437.953V380.901L702.868 343.832M210.237 497.474V514.546M65.3742 427.238L210.237 514.546M65.3742 427.238V443.09M210.237 514.546V530.154M65.3742 443.09L210.237 530.154M237.551 527.391L210.237 544.298L76.4252 465.453L65.3742 458.942V443.09M210.237 530.154V544.298M0.390625 474.55L386.316 712.953M24.8906 461.453L0.390625 474.55V502.953L386.316 745.953L789.891 482.453V451.625L762.862 437.953M386.316 712.953V745.953M386.316 712.953L789.891 451.625M24.8906 461.453L24.8906 474.55" stroke="black" stroke-width="0.780406"/>
<path d="M211.213 451.065L195.117 461.795L211.213 471.55L227.309 461.795L211.213 451.065Z" fill="#7EBCFF"/>
<path d="M470.367 396.436C470.367 399.13 468.475 402.406 466.143 403.753C463.81 405.1 461.918 404.008 461.918 401.314C461.918 398.62 463.81 395.344 466.143 393.998C468.475 392.651 470.367 393.743 470.367 396.436Z" fill="#0263EF"/>
<path d="M498.656 376.926C498.656 379.62 496.765 382.896 494.432 384.243C492.099 385.589 490.208 384.498 490.208 381.804C490.208 379.11 492.099 375.834 494.432 374.487C496.765 373.141 498.656 374.232 498.656 376.926Z" fill="#0263EF"/>
<path d="M484.999 386.681C484.999 389.375 483.108 392.651 480.775 393.998C478.442 395.344 476.551 394.253 476.551 391.559C476.551 388.865 478.442 385.589 480.775 384.243C483.108 382.896 484.999 383.987 484.999 386.681Z" fill="#0263EF"/>
<path d="M452.249 200.75L414.213 178.79L447.274 159.702L434.985 152.607L399.112 173.318C395.303 175.517 393.148 178.498 393.125 181.598L392.861 217.613L410.314 217.57L410.508 190.971L439.855 207.914L452.249 200.759L452.249 200.75Z" fill="#0263EF"/>
<path d="M374.005 134.98L373.811 161.58L344.463 144.636L332.07 151.792L370.106 173.752L337.045 192.84L349.334 199.935L385.206 179.225C389.017 177.025 391.172 174.044 391.194 170.944L391.458 134.938L374.005 134.98Z" fill="#0263EF"/>
<path d="M512.313 367.171C512.313 369.865 510.422 373.141 508.089 374.487C505.756 375.834 503.865 374.742 503.865 372.049C503.865 369.355 505.756 366.079 508.089 364.732C510.422 363.385 512.313 364.477 512.313 367.171Z" stroke="black" stroke-width="0.780406"/>
<path d="M211.213 451.065L195.117 461.795L211.213 471.55L227.309 461.795L211.213 451.065Z" stroke="black" stroke-width="0.780406"/>
<path d="M470.367 396.436C470.367 399.13 468.475 402.406 466.143 403.753C463.81 405.1 461.918 404.008 461.918 401.314C461.918 398.62 463.81 395.344 466.143 393.998C468.475 392.651 470.367 393.743 470.367 396.436Z" stroke="black" stroke-width="0.780406"/>
<path d="M498.656 376.926C498.656 379.62 496.765 382.896 494.432 384.243C492.099 385.589 490.208 384.498 490.208 381.804C490.208 379.11 492.099 375.834 494.432 374.487C496.765 373.141 498.656 374.232 498.656 376.926Z" stroke="black" stroke-width="0.780406"/>
<path d="M484.999 386.681C484.999 389.375 483.108 392.651 480.775 393.998C478.442 395.344 476.551 394.253 476.551 391.559C476.551 388.865 478.442 385.589 480.775 384.243C483.108 382.896 484.999 383.987 484.999 386.681Z" stroke="black" stroke-width="0.780406"/>
<path d="M452.249 200.75L414.213 178.79L447.274 159.702L434.985 152.607L399.112 173.318C395.303 175.517 393.148 178.498 393.125 181.598L392.861 217.613L410.314 217.57L410.508 190.971L439.855 207.914L452.249 200.759L452.249 200.75Z" stroke="black" stroke-width="0.780406"/>
<path d="M374.005 134.98L373.811 161.58L344.463 144.636L332.07 151.792L370.106 173.752L337.045 192.84L349.334 199.935L385.206 179.225C389.017 177.025 391.172 174.044 391.194 170.944L391.458 134.938L374.005 134.98Z" stroke="black" stroke-width="0.780406"/>
<path d="M170.897 439.373L113.342 402.792H111.391V404.743L168.458 441.324H170.897V439.373Z" fill="#B4D3FF"/>
<path d="M205.527 436.447L131.389 390.11H129.438V392.061L203.088 438.398H205.527V436.447Z" fill="#B4D3FF"/>
<path d="M253.327 439.373L152.85 376.453H150.899V378.404L250.888 441.324H253.327V439.373Z" fill="#B4D3FF"/>
<path fill-rule="evenodd" clip-rule="evenodd" d="M615.28 288.906L671.28 254.906V354.906L615.28 389.906V288.906Z" fill="#0054C9"/>
<path fill-rule="evenodd" clip-rule="evenodd" d="M615.28 288.906V389.906L609.78 387.406V285.906L615.28 288.906Z" fill="#0263EF"/>
<path fill-rule="evenodd" clip-rule="evenodd" d="M671.28 254.906L615.28 288.906L609.78 285.906L666.28 251.906L671.28 254.906Z" fill="#0263EF"/>
<path d="M615.28 288.906L671.28 254.906M615.28 288.906V389.906M615.28 288.906L609.78 285.906M609.78 285.906V387.406L615.28 389.906L671.28 354.906V254.906L666.28 251.906L609.78 285.906Z" stroke="black" stroke-width="0.4"/>
<path fill-rule="evenodd" clip-rule="evenodd" d="M671.17 239.953L650.011 251.596L645.757 249.245L667.024 237.453L671.17 239.953Z" fill="#0263EF"/>
<path fill-rule="evenodd" clip-rule="evenodd" d="M650.011 251.596L671.17 239.953V251.688L645.391 267.453L650.011 251.596Z" fill="#0054C9"/>
<path fill-rule="evenodd" clip-rule="evenodd" d="M645.757 249.245L650.011 251.596L645.391 267.453L641.391 263.953L645.757 249.245Z" fill="#0263EF"/>
<path d="M671.17 239.953L650.011 251.596M645.391 267.453L641.391 263.953L645.757 249.245L667.024 237.453L671.17 239.953V251.688L645.391 267.453ZM650.011 251.596L645.757 249.245M650.011 251.596L645.391 267.453M671.17 251.688L670.98 251.574" stroke="black" stroke-width="0.4"/>
<path fill-rule="evenodd" clip-rule="evenodd" d="M370.491 621.653L351.601 610.318V621.113L370.491 632.987V621.653Z" fill="#0263EF"/>
<path fill-rule="evenodd" clip-rule="evenodd" d="M370.491 621.653V632.987L373.46 631.637V620.033L370.491 621.653Z" fill="#0054C9"/>
<path fill-rule="evenodd" clip-rule="evenodd" d="M351.601 610.318L370.491 621.653L373.46 620.033L354.3 608.699L351.601 610.318Z" fill="#0263EF"/>
<path d="M354.191 608.518L351.493 610.138L351.391 610.199V621.229L351.489 621.291L370.379 633.165L370.475 633.224L370.578 633.178L373.547 631.829L373.67 631.772V619.914L354.3 608.453L354.191 608.518ZM373.249 620.151V631.501L370.507 632.747L351.811 620.995V610.436L354.3 608.944L373.249 620.151Z" fill="black"/>
<path fill-rule="evenodd" clip-rule="evenodd" d="M347.491 607.653L328.601 596.318V607.113L347.491 618.987V607.653Z" fill="#0263EF"/>
<path fill-rule="evenodd" clip-rule="evenodd" d="M347.491 607.653V618.987L350.46 617.637V606.033L347.491 607.653Z" fill="#0054C9"/>
<path fill-rule="evenodd" clip-rule="evenodd" d="M328.601 596.318L347.491 607.653L350.46 606.033L331.3 594.699L328.601 596.318Z" fill="#0263EF"/>
<path d="M331.191 594.518L328.493 596.138L328.391 596.199V607.229L328.489 607.291L347.379 619.165L347.475 619.224L347.578 619.178L350.547 617.829L350.67 617.772V605.914L331.3 594.453L331.191 594.518ZM350.249 606.151V617.501L347.507 618.747L328.811 606.995V596.436L331.3 594.944L350.249 606.151Z" fill="black"/>
</svg>
