<svg width="691" height="769" viewBox="0 0 691 769" fill="none" xmlns="http://www.w3.org/2000/svg">
<path fill-rule="evenodd" clip-rule="evenodd" d="M357.531 747.071V647.107L523.678 577.477L689.825 507.847V614.015L684.999 615.947L357.531 747.071Z" fill="#E4E4E5"/>
<path fill-rule="evenodd" clip-rule="evenodd" d="M689.825 507.847L523.678 577.477L432.676 543.696L498.859 514.741V502.331L427.298 477.492L510.924 441.663L689.825 507.847Z" fill="white"/>
<path fill-rule="evenodd" clip-rule="evenodd" d="M523.678 577.477L357.531 647.107L179.671 583.585L265.15 546.962L357.531 577.477L395.103 560.586L432.676 543.696L523.678 577.477Z" fill="white"/>
<path fill-rule="evenodd" clip-rule="evenodd" d="M265.15 546.962L179.671 583.585L1.81054 520.064L166.917 447.772L250.756 478.253C250.756 478.253 207.431 496.29 179.671 507.847C179.671 512.423 179.671 519.566 179.671 519.566L265.15 546.962Z" fill="white"/>
<path fill-rule="evenodd" clip-rule="evenodd" d="M510.924 441.663L427.298 477.492L332.023 444.421L250.756 478.253L166.917 447.772L332.023 375.48L510.924 441.663Z" fill="white"/>
<path fill-rule="evenodd" clip-rule="evenodd" d="M357.531 647.107V747.071L4.55441 615.556L0.417969 614.015L1.81054 520.064L179.671 583.585L357.531 647.107Z" fill="white"/>
<path fill-rule="evenodd" clip-rule="evenodd" d="M357.531 747.071L684.999 615.947V630.561L357.531 768.442L4.55441 636.076V615.556L357.531 747.071Z" fill="#0263EF"/>
<path fill-rule="evenodd" clip-rule="evenodd" d="M427.298 477.492L498.859 502.331L483.616 509.172L418.245 538.509L357.531 565.757L280.115 540.551L195.345 512.95L179.671 507.847L250.756 478.253L332.023 444.421L427.298 477.492Z" fill="white"/>
<path fill-rule="evenodd" clip-rule="evenodd" d="M498.859 514.741L432.676 543.696L395.103 560.586L357.531 577.477V565.757L418.245 538.509L483.616 509.172L498.859 502.331V514.741Z" fill="#E4E4E5"/>
<path fill-rule="evenodd" clip-rule="evenodd" d="M357.531 577.477L265.15 546.962L179.671 519.566V507.847L195.345 512.95L280.115 540.551L357.531 565.757V577.477Z" fill="white"/>
<path d="M357.531 747.071V647.107M4.55441 615.556L357.531 747.071L684.999 615.947M689.825 507.847L523.678 577.477L357.531 647.107M1.81054 520.064L179.671 583.585L357.531 647.107M523.678 577.477L432.676 543.696M510.924 441.663L689.825 507.847V614.015L684.999 615.947M684.999 615.947V630.561L357.531 768.442L4.55441 636.076V615.556M179.671 507.847C179.671 512.423 179.671 519.566 179.671 519.566L265.15 546.962L357.531 577.477L395.103 560.586L432.676 543.696L498.859 514.741V502.331L427.298 477.492M498.859 502.331L483.616 509.172L418.245 538.509L357.531 565.757M427.298 477.492L510.924 441.663M179.671 507.847C207.431 496.29 250.756 478.253 250.756 478.253L332.023 444.421L427.298 477.492M1.81054 520.064L166.917 447.772L332.023 375.48L510.924 441.663M179.671 583.585L265.15 546.962M357.531 577.477V565.757M1.81054 520.064L0.417969 614.015L4.55441 615.556M1.81054 520.064L0.417969 519.566M166.917 447.772L250.756 478.253M179.671 519.566V507.847L250.756 478.253M179.671 507.847L195.345 512.95M357.531 565.757L280.115 540.551L195.345 512.95C195.345 512.95 185.792 509.84 179.671 507.847" stroke="black" stroke-width="0.827288"/>
<path fill-rule="evenodd" clip-rule="evenodd" d="M420.214 166.583L481.363 187.808L468.338 193.653L412.479 218.722L360.599 242.005L294.448 220.466L222.013 196.882L208.619 192.521L269.361 167.233L338.802 138.324L420.214 166.583Z" fill="white"/>
<path fill-rule="evenodd" clip-rule="evenodd" d="M407.168 321.706V391.46L406.479 391.785L392.704 398.275L360.599 412.708V242.005L412.479 218.722L468.338 193.653L481.363 187.808L407.168 321.706Z" fill="#E4E4E5"/>
<path fill-rule="evenodd" clip-rule="evenodd" d="M360.599 412.708L283.075 387.101L281.661 386.634V383.753V316.881L208.619 192.521L222.013 196.882L294.448 220.466L360.599 242.005V412.708Z" fill="white"/>
<path fill-rule="evenodd" clip-rule="evenodd" d="M392.704 398.275L406.479 391.785V394.783L360.599 415.466L283.075 389.958V387.101L360.599 412.708L392.704 398.275Z" fill="#0263EF"/>
<path d="M283.075 387.101L360.599 412.708L392.704 398.275L406.479 391.785L407.168 391.46V321.706L481.363 187.808L420.214 166.583L338.802 138.324L269.361 167.233M481.363 187.808L468.338 193.653L412.479 218.722L360.599 242.005M208.619 192.521L222.013 196.882L294.448 220.466L360.599 242.005M360.599 242.005V412.708M222.013 196.882C222.013 196.882 213.85 194.224 208.619 192.521M281.661 316.881C281.661 316.881 208.619 196.432 208.619 192.521L269.361 167.233M283.075 387.101L281.661 386.634V383.753V316.881L208.619 192.521M208.619 192.521C232.34 182.645 269.361 167.233 269.361 167.233M406.479 391.785V394.783L360.599 415.466L283.075 389.958V387.101" stroke="black" stroke-width="0.37277"/>
<path fill-rule="evenodd" clip-rule="evenodd" d="M647.08 140.687L521.573 195.597L450.321 227.628L379.07 259.658V237.433L494.207 185.762L618.174 130.127L647.08 117.155V140.687Z" fill="#E4E4E5"/>
<path fill-rule="evenodd" clip-rule="evenodd" d="M379.07 259.658L203.882 201.792L41.7812 149.839V127.614L71.5066 137.292L232.262 189.633L379.07 237.433V259.658Z" fill="white"/>
<path fill-rule="evenodd" clip-rule="evenodd" d="M511.374 70.0501L638.898 114.315L379.07 227.628L51.4329 122.127L176.586 71.4933L330.697 7.33547L511.374 70.0501Z" fill="white"/>
<path fill-rule="evenodd" clip-rule="evenodd" d="M71.5066 137.292L41.7812 127.614V119.019L47.6015 120.894L51.4329 122.127L379.07 227.628V237.433L232.262 189.633L71.5066 137.292Z" fill="#E4E4E5"/>
<path fill-rule="evenodd" clip-rule="evenodd" d="M494.207 185.762L379.07 237.433V227.628L638.898 114.315L647.08 110.746V117.155L618.174 130.127L494.207 185.762Z" fill="#E4E4E5"/>
<path fill-rule="evenodd" clip-rule="evenodd" d="M176.586 71.4933L51.4329 122.127L47.6015 120.894L41.7812 119.019L330.697 0.441406V7.33547L176.586 71.4933Z" fill="#BDBFC8"/>
<path fill-rule="evenodd" clip-rule="evenodd" d="M638.898 114.315L511.374 70.0501L330.697 7.33547V0.441406L647.08 110.746L638.898 114.315Z" fill="#E4E4E5"/>
<path d="M41.7812 127.614V149.839L203.882 201.792L379.07 259.658L450.321 227.628L521.573 195.597L647.08 140.687V117.155M379.07 259.658V237.433M379.07 237.433L494.207 185.762L618.174 130.127L647.08 117.155M379.07 237.433L232.262 189.633L71.5066 137.292M379.07 237.433V227.628M41.7812 127.614V119.019L330.697 0.441406L647.08 110.746V117.155M41.7812 149.839C41.7812 149.839 41.7812 136.293 41.7812 127.614M41.7812 127.614L71.5066 137.292M41.7812 127.614C53.3897 131.393 71.5066 137.292 71.5066 137.292M638.898 114.315L511.374 70.0501L330.697 7.33547M647.08 110.746L638.898 114.315L379.07 227.628M41.7812 119.019L47.6015 120.894L51.4329 122.127L379.07 227.628M51.4329 122.127L176.586 71.4933L330.697 7.33547M330.697 7.33547V0.441406" stroke="black" stroke-width="0.827288"/>
<path d="M440.258 514.051L416.129 523.703L392 514.051V447.179L416.129 436.148L440.258 447.179V514.051Z" fill="#7EBCFF"/>
<path d="M392 447.179L416.129 436.148L440.258 447.179V514.051L416.129 523.703L392 514.051V447.179ZM416.129 523.703V456.831M416.129 456.831L440.258 447.179M416.129 456.831L392 447.179" stroke="black" stroke-width="0.827288"/>
<path d="M345.121 484.404L325.817 492.677L312.029 486.473V466.512L330.643 458.207L345.121 463.722V484.404Z" fill="#F67EFF"/>
<path d="M312.029 466.512L330.643 458.207L345.121 463.722V484.404L325.817 492.677L312.029 486.473V466.512ZM325.817 492.677V472.685M325.817 472.685L345.121 463.722M325.817 472.685L312.029 466.512" stroke="black" stroke-width="0.827288"/>
<path fill-rule="evenodd" clip-rule="evenodd" d="M466.457 110.057L365.803 159.005L229.301 114.194L330.644 62.4883L466.457 110.057Z" fill="white"/>
<path fill-rule="evenodd" clip-rule="evenodd" d="M365.803 159.005V172.104L229.301 127.292V114.194L365.803 159.005Z" fill="#F67EFF"/>
<path fill-rule="evenodd" clip-rule="evenodd" d="M365.803 159.005L466.457 110.057V123.845L365.803 172.104V159.005Z" fill="#E4E4E5"/>
<path d="M466.457 110.057L365.803 159.005M365.803 172.104L229.301 127.292V114.194L330.644 62.4883L466.457 110.057V123.845L365.803 172.104ZM365.803 159.005L229.301 114.194M365.803 159.005V172.104" stroke="black" stroke-width="0.827288"/>
<path fill-rule="evenodd" clip-rule="evenodd" d="M462.321 104.542L361.668 153.49L225.165 108.678L326.508 56.9727L462.321 104.542Z" fill="white"/>
<path fill-rule="evenodd" clip-rule="evenodd" d="M361.668 153.49V166.588L225.165 121.777V108.678L361.668 153.49Z" fill="#EFC702"/>
<path fill-rule="evenodd" clip-rule="evenodd" d="M361.668 153.49L462.321 104.542V118.33L361.668 166.588V153.49Z" fill="#E4E4E5"/>
<path d="M462.321 104.542L361.668 153.49M361.668 166.588L225.165 121.777V108.678L326.508 56.9727L462.321 104.542V118.33L361.668 166.588ZM361.668 153.49L225.165 108.678M361.668 153.49V166.588" stroke="black" stroke-width="0.827288"/>
<path fill-rule="evenodd" clip-rule="evenodd" d="M471.971 96.2683L371.318 145.216L234.815 100.405L336.158 48.6992L471.971 96.2683Z" fill="white"/>
<path fill-rule="evenodd" clip-rule="evenodd" d="M371.318 145.216V158.315L234.815 113.503V100.405L371.318 145.216Z" fill="#7EE3FF"/>
<path fill-rule="evenodd" clip-rule="evenodd" d="M371.318 145.216L471.971 96.2683V110.056L371.318 158.315V145.216Z" fill="#E4E4E5"/>
<path d="M471.971 96.2683L371.318 145.216M371.318 158.315L234.815 113.503V100.405L336.158 48.6992L471.971 96.2683V110.056L371.318 158.315ZM371.318 145.216L234.815 100.405M371.318 145.216V158.315" stroke="black" stroke-width="0.827288"/>
<path fill-rule="evenodd" clip-rule="evenodd" d="M466.457 68.6901L365.803 117.638L229.301 72.8266L330.644 21.1211L466.457 68.6901Z" fill="white"/>
<path fill-rule="evenodd" clip-rule="evenodd" d="M365.803 117.638V130.737L229.301 85.9253V72.8266L365.803 117.638Z" fill="#0263EF"/>
<path fill-rule="evenodd" clip-rule="evenodd" d="M365.803 117.638L466.457 68.6901V82.4783L365.803 130.737V117.638Z" fill="#E4E4E5"/>
<path d="M466.457 68.6901L365.803 117.638M365.803 130.737L229.301 85.9253V72.8266L330.644 21.1211L466.457 68.6901V82.4783L365.803 130.737ZM365.803 117.638L229.301 72.8266M365.803 117.638V130.737" stroke="black" stroke-width="0.827288"/>
<path fill-rule="evenodd" clip-rule="evenodd" d="M481.624 68.6901L380.97 117.638L244.468 72.8266L345.811 21.1211L481.624 68.6901Z" fill="white"/>
<path fill-rule="evenodd" clip-rule="evenodd" d="M380.97 117.638V130.737L244.468 85.9253V72.8266L380.97 117.638Z" fill="#7EBCFF"/>
<path fill-rule="evenodd" clip-rule="evenodd" d="M380.97 117.638L481.624 68.6901V82.4783L380.97 130.737V117.638Z" fill="#E4E4E5"/>
<path d="M481.624 68.6901L380.97 117.638M380.97 130.737L244.468 85.9253V72.8266L345.811 21.1211L481.624 68.6901V82.4783L380.97 130.737ZM380.97 117.638L244.468 72.8266M380.97 117.638V130.737" stroke="black" stroke-width="0.827288"/>
<path d="M261.014 475.442L289.969 462.344L323.06 477.511V510.602L292.726 524.39L261.014 510.602V475.442Z" fill="#EFC802"/>
<path d="M292.726 524.39L323.06 510.602V477.511L289.969 462.344L261.014 475.442V510.602L292.726 524.39ZM261.014 475.442L292.726 489.92M323.06 477.511L292.726 489.92M292.726 489.92V524.39" stroke="black" stroke-width="0.827288"/>
<path d="M389.242 479.579L360.287 466.48L299.619 495.436V528.527L329.953 542.315L389.242 514.739V479.579Z" fill="#0263EF"/>
<path d="M329.953 542.315L299.619 528.527V495.436L360.287 466.48L389.242 479.579V514.739L329.953 542.315ZM389.242 479.579L329.953 507.845M299.619 495.436L329.953 507.845M329.953 507.845V542.315" stroke="black" stroke-width="0.827288"/>
<path d="M383.728 488.167L365.114 495.434L346.5 488.167V456.86L365.114 448.555L383.728 456.86V488.167Z" fill="#7EE3FF"/>
<path d="M346.5 456.86L365.114 448.555L383.728 456.86V488.167L365.114 495.434L346.5 488.167V456.86ZM365.114 495.434V464.127M365.114 464.127L383.728 456.86M365.114 464.127L346.5 456.86" stroke="black" stroke-width="0.827288"/>
<path fill-rule="evenodd" clip-rule="evenodd" d="M290.047 669.189L272.468 663.367V685.736L290.047 692.676V669.189Z" fill="#0054C9"/>
<path fill-rule="evenodd" clip-rule="evenodd" d="M290.047 669.189V692.676L296.016 688.392V665.364L290.047 669.189Z" fill="#0263EF"/>
<path fill-rule="evenodd" clip-rule="evenodd" d="M272.468 663.367L290.047 669.189L296.016 665.364L277.894 658.659L272.468 663.367Z" fill="#0263EF"/>
<path d="M277.675 658.341L272.249 663.049L272.044 663.227V686.084L272.242 686.163L289.821 693.103L290.014 693.179L290.221 693.031L296.19 688.747L296.438 688.568V665.01L277.893 658.151L277.675 658.341ZM295.592 665.629V688.217L290.079 692.174L272.89 685.388V663.509L277.893 659.168L295.592 665.629Z" fill="black"/>
<path fill-rule="evenodd" clip-rule="evenodd" d="M320.666 680.052L303.087 674.23V696.599L320.666 703.539V680.052Z" fill="#0054C9"/>
<path fill-rule="evenodd" clip-rule="evenodd" d="M320.666 680.052V703.539L326.635 699.255V676.228L320.666 680.052Z" fill="#0263EF"/>
<path fill-rule="evenodd" clip-rule="evenodd" d="M303.087 674.23L320.666 680.052L326.635 676.228L308.513 669.522L303.087 674.23Z" fill="#0263EF"/>
<path d="M308.295 669.204L302.869 673.912L302.663 674.09V696.947L302.861 697.026L320.441 703.967L320.633 704.042L320.84 703.894L326.809 699.61L327.057 699.431V675.873L308.512 669.014L308.295 669.204ZM326.211 676.492V699.08L320.698 703.037L303.509 696.251V674.372L308.512 670.031L326.211 676.492Z" fill="black"/>
<path d="M67.1047 590.026L50.5425 582.652V566.894L45.1914 564.512V581.61C45.1914 583.426 45.8463 585.461 47.0104 587.265L60.5338 608.215L64.3175 605.722L54.3292 590.249L67.1078 595.938V590.031L67.1047 590.026Z" fill="#0263EF"/>
<path d="M25.2689 562.904L35.2572 578.377L22.4785 572.688V578.595L39.0407 585.969V601.727L44.3918 604.109V587.011C44.3918 585.195 43.7369 583.16 42.5729 581.357L29.0525 560.411L25.2689 562.904Z" fill="#0263EF"/>
<path d="M307.779 68.4922L347.414 46.1438" stroke="#0263EF" stroke-opacity="0.77" stroke-width="4.13644"/>
<path d="M320.303 69.0742L349.258 52.9338" stroke="#0263EF" stroke-opacity="0.77" stroke-width="4.13644"/>
</svg>
