<svg width="671" height="747" viewBox="0 0 671 747" fill="none" xmlns="http://www.w3.org/2000/svg">
<path fill-rule="evenodd" clip-rule="evenodd" d="M122.529 191.45L177.261 157.905V184.388L122.529 217.933V191.45Z" fill="#0263EF"/>
<path fill-rule="evenodd" clip-rule="evenodd" d="M122.529 191.45V217.933L66.4734 184.388V157.905L122.529 191.45Z" fill="#0263EF"/>
<path fill-rule="evenodd" clip-rule="evenodd" d="M177.261 157.905L122.529 191.45L66.4734 157.905L122.529 124.359L177.261 157.905Z" fill="white"/>
<path fill-rule="evenodd" clip-rule="evenodd" d="M122.529 426.267L177.261 393.163V399.342L122.529 432.888L66.4734 398.46V393.163L122.529 426.267Z" fill="#0263EF"/>
<path fill-rule="evenodd" clip-rule="evenodd" d="M66.4734 184.388L122.529 217.933V426.267L66.4734 393.163V357.411V184.388Z" fill="white"/>
<path fill-rule="evenodd" clip-rule="evenodd" d="M122.529 217.933L177.261 184.388V294.226V304.445V393.163L122.529 426.267V217.933Z" fill="#E4E4E5"/>
<path fill-rule="evenodd" clip-rule="evenodd" d="M169.096 499.978L0.265625 398.46V497.771L337.925 702.574V601.497L169.096 499.978Z" fill="white"/>
<path fill-rule="evenodd" clip-rule="evenodd" d="M337.925 713.609L0.265625 509.247V540.144L337.925 746.271V713.609Z" fill="white"/>
<path fill-rule="evenodd" clip-rule="evenodd" d="M551.556 191.45L606.288 157.905V184.388L551.556 217.933V191.45Z" fill="#0263EF"/>
<path fill-rule="evenodd" clip-rule="evenodd" d="M551.556 191.45V217.933L495.5 184.388V157.905L551.556 191.45Z" fill="#0263EF"/>
<path fill-rule="evenodd" clip-rule="evenodd" d="M606.288 157.905L551.556 191.45L495.5 157.905L551.556 124.359L606.288 157.905Z" fill="white"/>
<path fill-rule="evenodd" clip-rule="evenodd" d="M551.556 426.267L606.288 393.163V399.342L551.556 432.888L495.5 398.46V393.163L551.556 426.267Z" fill="#0263EF"/>
<path fill-rule="evenodd" clip-rule="evenodd" d="M495.5 184.388L551.556 217.933V326.946V426.267L495.5 393.163V303.646V293.477V184.388Z" fill="white"/>
<path fill-rule="evenodd" clip-rule="evenodd" d="M551.556 217.933L606.288 184.388V359.624V393.163L551.556 426.267V326.946V217.933Z" fill="#E4E4E5"/>
<path fill-rule="evenodd" clip-rule="evenodd" d="M337.925 601.497V702.574L632.33 523.899L641.599 503.509L670.289 485.854V399.342L504.107 500.42L337.925 601.497Z" fill="#E4E4E5"/>
<path fill-rule="evenodd" clip-rule="evenodd" d="M337.925 713.609L670.289 511.896V543.676L337.925 746.271V713.609Z" fill="#E4E4E5"/>
<path fill-rule="evenodd" clip-rule="evenodd" d="M337.925 601.497L169.096 499.978L257.152 447.233L337.043 495.123L416.271 446.791L504.107 500.42L337.925 601.497Z" fill="white"/>
<path fill-rule="evenodd" clip-rule="evenodd" d="M122.529 432.888L177.261 399.342L257.152 447.233L169.096 499.978L0.265625 398.46L66.4734 357.411V393.163V398.46L122.529 432.888Z" fill="white"/>
<path fill-rule="evenodd" clip-rule="evenodd" d="M177.261 399.342V393.163V304.445L257.593 350.128L177.261 399.342Z" fill="white"/>
<path fill-rule="evenodd" clip-rule="evenodd" d="M177.261 304.445V294.226L337.925 199.395L495.5 293.477V303.646L460.41 324.151L416.713 349.687L337.925 300.914L257.593 350.128L177.261 304.445Z" fill="white"/>
<path fill-rule="evenodd" clip-rule="evenodd" d="M606.288 399.342V393.163V359.624L608.495 360.942L670.289 399.342L504.107 500.42L416.271 446.791L495.5 398.46L551.556 432.888L606.288 399.342Z" fill="white"/>
<path fill-rule="evenodd" clip-rule="evenodd" d="M495.5 393.163V398.46L416.713 349.687L460.41 324.151L495.5 303.646V393.163Z" fill="white"/>
<path fill-rule="evenodd" clip-rule="evenodd" d="M337.043 495.123L257.152 447.233L177.261 399.342L257.593 350.128L337.925 300.914L416.713 349.687L495.5 398.46L416.271 446.791L337.043 495.123Z" fill="#0263EF"/>
<path fill-rule="evenodd" clip-rule="evenodd" d="M0.265625 497.771L337.925 702.574L632.33 523.899L641.599 503.509L670.289 485.854V500.861V511.896L337.925 713.609L0.265625 509.247V497.771Z" fill="#0263EF"/>
<path d="M122.529 191.45L177.261 157.905M122.529 191.45V217.933M122.529 191.45L66.4734 157.905M66.4734 184.388V157.905L122.529 124.359L177.261 157.905V184.388M177.261 184.388L122.529 217.933M177.261 184.388V294.226M122.529 217.933L66.4734 184.388M122.529 217.933V426.267M66.4734 184.388V357.411M66.4734 393.163L122.529 426.267L177.261 393.163M177.261 393.163V399.342M177.261 393.163V304.445M177.261 399.342L122.529 432.888L66.4734 398.46V393.163M495.5 398.46L416.271 446.791L337.043 495.123L257.152 447.233L177.261 399.342M177.261 399.342L257.593 350.128M66.4734 393.163V357.411M0.265625 497.771V398.46L66.4734 357.411M177.261 294.226V304.445M177.261 294.226L337.925 199.395L495.5 293.477M177.261 304.445L257.593 350.128M169.096 499.978L0.265625 398.46M169.096 499.978L337.925 601.497M169.096 499.978L257.152 447.233M670.289 485.854L641.599 503.509L632.33 523.899L337.925 702.574L0.265625 497.771M0.265625 497.771V509.247M337.925 702.574V601.497M337.925 601.497L504.107 500.42M337.925 713.609L0.265625 509.247M337.925 713.609V746.271M337.925 713.609L670.289 511.896M670.289 511.896V543.676L337.925 746.271L0.265625 540.144V509.247M551.556 191.45L606.288 157.905M551.556 191.45V217.933M551.556 191.45L495.5 157.905M495.5 184.388V157.905L551.556 124.359L606.288 157.905V184.388M606.288 184.388L551.556 217.933M606.288 184.388V359.624M551.556 217.933L495.5 184.388M551.556 217.933V326.946V426.267M495.5 184.388V293.477M495.5 393.163L551.556 426.267L606.288 393.163M606.288 393.163V399.342L551.556 432.888L495.5 398.46M606.288 393.163V359.624M495.5 398.46V393.163M495.5 398.46L416.713 349.687M495.5 393.163V303.646M495.5 303.646V293.477M495.5 303.646L460.41 324.151L416.713 349.687M670.289 485.854V399.342L608.495 360.942L606.288 359.624M670.289 485.854V500.861V511.896M670.289 399.342L504.107 500.42M504.107 500.42L416.271 446.791M257.593 350.128L337.925 300.914L416.713 349.687" stroke="black" stroke-width="0.529663"/>
<path fill-rule="evenodd" clip-rule="evenodd" d="M613.066 460.462L629.742 450.457V459.986L613.066 470.468V460.462Z" fill="#0263EF"/>
<path fill-rule="evenodd" clip-rule="evenodd" d="M613.066 460.462V470.468L610.445 469.276V459.033L613.066 460.462Z" fill="#0054C9"/>
<path fill-rule="evenodd" clip-rule="evenodd" d="M629.742 450.457L613.066 460.462L610.445 459.033L627.359 449.027L629.742 450.457Z" fill="#0263EF"/>
<path d="M627.455 448.866L629.837 450.296L629.927 450.35V460.087L629.84 460.141L613.165 470.623L613.08 470.676L612.989 470.635L610.369 469.444L610.26 469.394V458.926L627.359 448.809L627.455 448.866ZM610.631 459.136V469.154L613.051 470.255L629.556 459.88V450.559L627.359 449.242L610.631 459.136Z" fill="black"/>
<path fill-rule="evenodd" clip-rule="evenodd" d="M635.136 446.337L651.812 436.332V445.861L635.136 456.343V446.337Z" fill="#0263EF"/>
<path fill-rule="evenodd" clip-rule="evenodd" d="M635.136 446.337V456.343L632.516 455.151V444.908L635.136 446.337Z" fill="#0054C9"/>
<path fill-rule="evenodd" clip-rule="evenodd" d="M651.812 436.332L635.136 446.337L632.516 444.908L649.43 434.902L651.812 436.332Z" fill="#0263EF"/>
<path d="M649.525 434.741L651.907 436.171L651.998 436.225V445.962L651.911 446.016L635.235 456.498L635.15 456.551L635.059 456.51L632.439 455.319L632.33 455.269V444.801L649.43 434.684L649.525 434.741ZM632.701 445.011V455.029L635.122 456.13L651.626 445.755V436.434L649.43 435.117L632.701 445.011Z" fill="black"/>
<circle cx="9.38022" cy="9.38022" r="9.07125" transform="matrix(-0.866025 -0.5 0 1 208.6 567.758)" fill="#7EBCFF" stroke="black" stroke-width="0.61794"/>
<circle cx="9.38022" cy="9.38022" r="9.07125" transform="matrix(-0.866025 -0.5 0 1 184.854 554.051)" fill="#7EBCFF" stroke="black" stroke-width="0.61794"/>
<circle cx="9.38022" cy="9.38022" r="9.07125" transform="matrix(-0.866025 -0.5 0 1 161.107 540.34)" fill="#0263EF" stroke="black" stroke-width="0.61794"/>
<circle cx="9.38022" cy="9.38022" r="9.07125" transform="matrix(-0.866025 -0.5 0 1 137.363 526.629)" fill="#0263EF" stroke="black" stroke-width="0.61794"/>
<circle cx="9.38022" cy="9.38022" r="9.07125" transform="matrix(-0.866025 -0.5 0 1 113.617 512.922)" fill="#0263EF" stroke="black" stroke-width="0.61794"/>
<path fill-rule="evenodd" clip-rule="evenodd" d="M336.159 67.45L390.891 33.9047V60.3878L336.159 93.9331V67.45Z" fill="#0263EF"/>
<path fill-rule="evenodd" clip-rule="evenodd" d="M336.159 67.45V93.9331L280.104 60.3878V33.9047L336.159 67.45Z" fill="#0263EF"/>
<path fill-rule="evenodd" clip-rule="evenodd" d="M336.159 302.267L390.891 269.163V275.342L336.159 308.888L280.104 274.46V269.163L336.159 302.267Z" fill="#0263EF"/>
<path fill-rule="evenodd" clip-rule="evenodd" d="M280.104 60.3878L336.159 93.9331V302.267L280.104 269.163V230.321V60.3878Z" fill="white"/>
<path fill-rule="evenodd" clip-rule="evenodd" d="M336.159 93.9331L390.891 60.3878V269.163L336.159 302.267V93.9331Z" fill="#E4E4E5"/>
<path fill-rule="evenodd" clip-rule="evenodd" d="M390.891 33.9047L336.159 67.45L280.104 33.9047L336.159 0.359375L390.891 33.9047Z" fill="white"/>
<path d="M336.159 67.45L390.891 33.9047M336.159 67.45V93.9331M336.159 67.45L280.104 33.9047M280.104 60.3878V33.9047L336.159 0.359375L390.891 33.9047V60.3878M390.891 60.3878L336.159 93.9331M390.891 60.3878V269.163M336.159 93.9331L280.104 60.3878M336.159 93.9331V302.267M280.104 60.3878V230.321V269.163M280.104 269.163L336.159 302.267L390.891 269.163M390.891 269.163V275.342L336.159 308.888L280.104 274.46V269.163" stroke="black" stroke-width="0.61794"/>
<path d="M177.703 210.459V183.976V164.114L299.967 90.4023L317.181 98.7887V126.155L177.703 210.459Z" fill="white"/>
<path d="M317.181 98.7887L299.967 90.4023L177.703 164.114V183.976V210.459L317.181 126.155V98.7887ZM177.703 183.976L317.181 98.7887" stroke="black" stroke-width="0.61794"/>
<path d="M495.5 210.459V183.976V164.114L373.236 90.4023L356.022 98.7887V126.155L495.5 210.459Z" fill="white"/>
<path d="M356.022 98.7887L373.236 90.4023L495.5 164.114V183.976V210.459L356.022 126.155V98.7887ZM495.5 183.976L356.022 98.7887" stroke="black" stroke-width="0.61794"/>
<path fill-rule="evenodd" clip-rule="evenodd" d="M336.855 338.169L412.952 291.527V377.446L336.855 424.088V338.169Z" fill="#E0E1E3"/>
<path fill-rule="evenodd" clip-rule="evenodd" d="M336.855 338.169V424.088L258.918 377.446V319.479V296.086V291.527L336.855 338.169Z" fill="white"/>
<path fill-rule="evenodd" clip-rule="evenodd" d="M412.952 291.527L336.855 338.169L258.918 291.527L272.601 283.338L336.855 244.885L412.952 291.527Z" fill="white"/>
<path fill-rule="evenodd" clip-rule="evenodd" d="M258.918 291.527V296.086L228.904 277.217L198.89 258.347L138.861 220.609L156.075 210.457L272.601 283.338L258.918 291.527Z" fill="white"/>
<path d="M258.918 296.086V319.479L138.861 247.533V220.609L198.89 258.347L228.904 277.217L258.918 296.086Z" fill="white"/>
<path d="M336.855 338.169L412.952 291.527M336.855 338.169V424.088M336.855 338.169L258.918 291.527M272.601 283.338L336.855 244.885L412.952 291.527V377.446L336.855 424.088L258.918 377.446V319.479M258.918 319.479V296.086M272.601 283.338L156.075 210.457L138.861 220.609V247.533L258.918 319.479M272.601 283.338L258.918 291.527V296.086M258.918 296.086L228.904 277.217L198.89 258.347L138.861 220.609" stroke="black" stroke-width="0.61794"/>
<path d="M412.961 296.086V321.245L533.018 247.533V220.609L515.804 210.457L399.278 283.338L412.961 291.527V296.086Z" fill="white"/>
<path d="M533.018 220.609L515.804 210.457L399.278 283.338L412.961 291.527V296.086V321.245L533.018 247.533V220.609ZM412.961 296.086L533.018 220.609" stroke="black" stroke-width="0.61794"/>
<g filter="url(#filter0_d_6411_8838)">
<path d="M366.016 300.868L346.928 289.847L363.52 280.268L357.352 276.707L339.35 287.101C337.438 288.205 336.357 289.701 336.345 291.256L336.213 309.33L344.971 309.309L345.069 295.96L359.797 304.463L366.016 300.872L366.016 300.868Z" fill="#0263EF"/>
<path d="M326.75 267.861L326.652 281.21L311.925 272.707L305.705 276.298L324.793 287.319L308.202 296.898L314.369 300.459L332.371 290.065C334.284 288.961 335.365 287.465 335.376 285.91L335.509 267.84L326.75 267.861Z" fill="#0263EF"/>
<path d="M366.016 300.868L346.928 289.847L363.52 280.268L357.352 276.707L339.35 287.101C337.438 288.205 336.357 289.701 336.345 291.256L336.213 309.33L344.971 309.309L345.069 295.96L359.797 304.463L366.016 300.872L366.016 300.868Z" stroke="black" stroke-width="0.529663"/>
<path d="M326.75 267.861L326.652 281.21L311.925 272.707L305.705 276.298L324.793 287.319L308.202 296.898L314.369 300.459L332.371 290.065C334.284 288.961 335.365 287.465 335.376 285.91L335.509 267.84L326.75 267.861Z" stroke="black" stroke-width="0.529663"/>
</g>
<path d="M295.902 107.398L295.902 102.04L286.621 102.04" stroke="#0263EF" stroke-width="1.32416" stroke-miterlimit="10" stroke-linecap="round" stroke-linejoin="round"/>
<path d="M282.906 109.543L295.773 102.114" stroke="#0263EF" stroke-width="1.32416" stroke-miterlimit="10" stroke-linecap="round" stroke-linejoin="round"/>
<path d="M251.902 275.184L251.902 280.542L242.621 280.542" stroke="#0263EF" stroke-width="1.32416" stroke-miterlimit="10" stroke-linecap="round" stroke-linejoin="round"/>
<path d="M238.906 273.039L251.773 280.468" stroke="#0263EF" stroke-width="1.32416" stroke-miterlimit="10" stroke-linecap="round" stroke-linejoin="round"/>
<path d="M485.902 162.184L485.902 167.542L476.621 167.542" stroke="#0263EF" stroke-width="1.32416" stroke-miterlimit="10" stroke-linecap="round" stroke-linejoin="round"/>
<path d="M472.906 160.039L485.773 167.468" stroke="#0263EF" stroke-width="1.32416" stroke-miterlimit="10" stroke-linecap="round" stroke-linejoin="round"/>
<path d="M410.906 280.184L410.906 285.542L420.187 285.542" stroke="#0263EF" stroke-width="1.32416" stroke-miterlimit="10" stroke-linecap="round" stroke-linejoin="round"/>
<path d="M423.902 278.039L411.036 285.468" stroke="#0263EF" stroke-width="1.32416" stroke-miterlimit="10" stroke-linecap="round" stroke-linejoin="round"/>
<path d="M140.897 163.637C142.604 163.141 144.109 162.441 145.312 161.583C146.515 160.726 147.388 159.73 147.873 158.663C148.622 157.06 148.471 155.361 147.441 153.811C146.411 152.261 144.555 150.94 142.141 150.037C142.268 148.66 141.766 147.287 140.683 146.057C139.601 144.828 137.977 143.784 135.975 143.031C133.973 142.278 131.664 141.842 129.278 141.768C126.892 141.693 124.514 141.983 122.383 142.606C120.786 141.999 118.983 141.596 117.095 141.422C115.207 141.249 113.276 141.309 111.431 141.6C108.647 142.026 106.17 142.951 104.356 144.243C102.543 145.535 101.488 147.126 101.343 148.787C99.6323 149.28 98.1242 149.979 96.9191 150.836C95.714 151.693 94.8398 152.688 94.355 153.756C93.605 155.36 93.7567 157.06 94.7883 158.611C95.8198 160.163 97.678 161.485 100.095 162.387C99.9832 163.488 100.279 164.591 100.963 165.622C101.646 166.652 102.702 167.587 104.059 168.364C106.096 169.541 108.728 170.315 111.575 170.573C114.423 170.831 117.338 170.56 119.902 169.8C121.499 170.406 123.302 170.81 125.19 170.983C127.078 171.157 129.008 171.096 130.853 170.805C133.622 170.374 136.084 169.449 137.888 168.161C139.691 166.874 140.745 165.291 140.897 163.637ZM106.552 166.925C104.881 165.963 103.849 164.692 103.637 163.335L103.989 163.39L115.956 165.243C116.256 165.287 116.57 165.286 116.868 165.24C117.167 165.193 117.439 165.103 117.66 164.978L128.357 158.802L129.709 161.725C129.717 161.739 129.72 161.753 129.716 161.768C129.712 161.782 129.702 161.796 129.687 161.807L120.823 166.925C118.927 168.015 116.362 168.626 113.687 168.626C111.013 168.626 108.447 168.015 106.552 166.925ZM97.7655 154.288C98.3734 152.97 99.7672 151.818 101.702 151.034L101.792 151.242L105.006 158.156C105.083 158.328 105.239 158.485 105.456 158.611C105.674 158.737 105.946 158.826 106.244 158.871L120.87 161.139L117.168 163.277C117.148 163.287 117.124 163.295 117.098 163.3C117.072 163.305 117.044 163.306 117.017 163.303L104.901 161.425C102.317 161.023 100.115 160.046 98.777 158.708C97.4393 157.37 97.0755 155.78 97.7655 154.288ZM112.29 143.592C114.589 143.24 117.028 143.368 119.179 143.952L110.166 149.156C109.946 149.28 109.787 149.437 109.706 149.608C109.626 149.78 109.626 149.961 109.707 150.132L113.614 158.537L108.553 157.756C108.526 157.751 108.503 157.743 108.483 157.732C108.464 157.72 108.449 157.706 108.44 157.691L105.195 150.71C104.506 149.217 104.869 147.627 106.207 146.289C107.544 144.951 109.745 143.973 112.328 143.57L112.29 143.592ZM132.521 162.34L128.638 153.888L133.685 154.668C133.711 154.673 133.735 154.682 133.755 154.693C133.774 154.704 133.789 154.718 133.798 154.733L137.035 161.719C137.532 162.787 137.493 163.914 136.921 164.97C136.35 166.025 135.27 166.965 133.808 167.679C132.346 168.393 130.562 168.852 128.664 169.003C126.767 169.153 124.835 168.989 123.093 168.529L132.108 163.324C132.319 163.195 132.468 163.036 132.54 162.864C132.613 162.691 132.606 162.511 132.521 162.34ZM140.512 161.411L140.423 161.204L137.261 154.278C137.182 154.105 137.025 153.947 136.806 153.821C136.587 153.694 136.314 153.604 136.014 153.558L121.396 151.295L125.1 149.156C125.117 149.145 125.139 149.136 125.164 149.131C125.189 149.125 125.215 149.124 125.241 149.126L137.335 150.999C139.187 151.287 140.859 151.873 142.155 152.69C143.451 153.506 144.318 154.518 144.654 155.608C144.991 156.699 144.783 157.822 144.055 158.846C143.326 159.871 142.108 160.754 140.543 161.394L140.512 161.411ZM113.878 153.615L112.519 150.696C112.512 150.681 112.512 150.666 112.517 150.651C112.522 150.636 112.533 150.621 112.549 150.609L121.388 145.506C122.746 144.725 124.462 144.183 126.334 143.943C128.206 143.704 130.157 143.777 131.96 144.154C133.763 144.531 135.342 145.196 136.515 146.072C137.687 146.948 138.403 147.999 138.58 149.101L138.228 149.044L126.262 147.193C125.963 147.148 125.648 147.149 125.35 147.195C125.051 147.242 124.778 147.332 124.557 147.457L113.878 153.615ZM119.375 152.453L125.888 153.463L127.645 157.228L122.884 159.977L116.379 158.971L114.621 155.206L119.375 152.453Z" fill="black"/>
<path d="M317.501 29.3024L329.199 31.2013L329.691 31.0632L329.768 30.8732L329.403 30.6624L328.227 29.8948L324.061 27.356L320.502 25.123L317.098 22.9346L316.385 22.3007L316.655 21.1649L317.301 20.8932L318.574 21.0372L319.569 21.7216L321.814 23.2078L325.18 25.4393L327.649 27.0427L331.131 29.5192L331.748 29.8755L332.085 29.782L332.028 29.5711L332.018 29.387L330.812 25.7629L329.441 21.8775L328.863 19.7619L328.497 18.6483L328.652 17.8912L330.002 16.8237L332.19 16.7628L333.494 17.6254L333.756 17.8867L334.083 19.3343L334.767 22.4343L335.808 26.3969L335.906 27.0086L336.302 27.0472L336.446 26.9967L336.621 26.5958L338.357 23.1113L340.015 19.505L340.632 17.9698L341.345 17.2468C341.653 16.9588 341.923 16.7227 342.337 16.4837L345.133 16.2387L345.999 16.4956L347.37 17.5304L347.457 18.249L346.192 20.1137L344.245 23.0757L341.903 27.2788L341.198 28.52L340.262 29.5058L340.002 29.8221L340.252 29.9661L340.483 29.8325L343.397 28.3849L347.1 26.6805L351.747 24.4193L353.079 23.7957L355.121 23.3058L357.088 23.5389L357.571 24.3287L357.242 25.3977L356.432 25.7436L353.038 27.1808L347.542 29.3291L343.878 30.7767L344.215 30.9712L344.986 30.9712L348.62 30.6757L354.521 30.2972L356.98 30.214L359.767 30.1635L361.318 30.2689L362.956 31.2147L362.37 32.9458L359.978 33.703L356.152 33.9643L352.94 34.2034L348.234 34.6042L344.822 35.1283L344.765 35.2946L345.092 35.4505L350.587 37.5097L353.477 38.6678L356.9 40.0649L357.605 41.1843L357.121 41.6297L355.319 42.0707L351.423 40.7122L347.025 39.0197L340.278 36.6145L340.162 36.6041L340.144 36.7036L342.371 38.2565L343.366 38.8964L345.94 40.3826L350.376 43.3564L350.8 44.5575L350.538 45.576L349.641 45.9487L346.73 45.4023L344.744 43.5435L340.116 39.2023L338.552 37.6998L338.264 37.5335L338.092 37.633L338.13 39.615L338.439 43.1099L338.719 47.5477L338.007 48.1935L336.773 48.3152L336.31 47.9589L335.443 44.418L335.279 42.9541L334.795 39.7026L334.592 39.5853L334.322 39.7412L333.995 40.7434L332.123 46.1209L330.601 47.2225L329.773 47.3888L328.472 47.0265L327.605 46.3035L328.485 43.2807L329.68 39.9951L330.953 37.1668L330.606 37.1118L318.013 43.1471L316.923 43.1975L315.323 42.7848L315.092 41.8049L315.766 40.825L318.62 39.7679L322.295 38.359L325.226 37.2455L328.698 35.7637L329.971 35.3406L330.02 35.2916L329.77 35.1803L324.37 35.6702L316.231 36.3725L310.561 36.4838L309.645 36.2552L309.098 35.259L310.255 34.7126L311.826 34.5389L320.438 33.9435L325.712 33.5382L328.914 33.3942L329.153 33.2442L329.066 33.1938L312.461 31.1553L310.437 30.2541L310.389 29.3915L311.669 28.762L312.42 28.7501L317.53 29.295L317.509 29.295L317.501 29.3024Z" fill="#D97757"/>
<path d="M568.979 164.163C567.307 161.766 566.444 159.206 566.439 156.622C566.445 153.015 568.124 149.475 571.302 146.37C571.443 146.232 571.502 146.071 571.467 145.912C571.433 145.754 571.308 145.606 571.112 145.493C570.916 145.38 570.66 145.307 570.385 145.287C570.11 145.268 569.831 145.301 569.593 145.383C564.212 147.216 558.081 148.185 551.834 148.189C547.358 148.186 542.924 147.688 538.773 146.723C537.142 146.348 535.577 145.9 534.075 145.383C533.837 145.3 533.557 145.265 533.281 145.284C533.004 145.304 532.747 145.376 532.55 145.49C532.353 145.603 532.228 145.752 532.195 145.911C532.161 146.071 532.221 146.232 532.366 146.37C533.263 147.236 534.036 148.138 534.688 149.081C536.361 151.478 537.223 154.038 537.228 156.622C537.222 160.229 535.543 163.77 532.366 166.876C532.221 167.013 532.161 167.175 532.195 167.334C532.228 167.494 532.353 167.643 532.55 167.756C532.747 167.87 533.004 167.942 533.281 167.961C533.557 167.981 533.837 167.946 534.075 167.863C535.577 167.344 537.139 166.897 538.773 166.521C542.924 165.555 547.358 165.057 551.834 165.054C558.081 165.058 564.213 166.028 569.593 167.863C569.831 167.945 570.11 167.978 570.385 167.958C570.66 167.938 570.916 167.866 571.112 167.753C571.308 167.64 571.433 167.492 571.467 167.333C571.502 167.174 571.443 167.014 571.302 166.876C570.403 166.009 569.627 165.101 568.979 164.163Z" fill="#3186FF"/>
<path d="M568.979 164.163C567.307 161.766 566.444 159.206 566.439 156.622C566.445 153.015 568.124 149.475 571.302 146.37C571.443 146.232 571.502 146.071 571.467 145.912C571.433 145.754 571.308 145.606 571.112 145.493C570.916 145.38 570.66 145.307 570.385 145.287C570.11 145.268 569.831 145.301 569.593 145.383C564.212 147.216 558.081 148.185 551.834 148.189C547.358 148.186 542.924 147.688 538.773 146.723C537.142 146.348 535.577 145.9 534.075 145.383C533.837 145.3 533.557 145.265 533.281 145.284C533.004 145.304 532.747 145.376 532.55 145.49C532.353 145.603 532.228 145.752 532.195 145.911C532.161 146.071 532.221 146.232 532.366 146.37C533.263 147.236 534.036 148.138 534.688 149.081C536.361 151.478 537.223 154.038 537.228 156.622C537.222 160.229 535.543 163.77 532.366 166.876C532.221 167.013 532.161 167.175 532.195 167.334C532.228 167.494 532.353 167.643 532.55 167.756C532.747 167.87 533.004 167.942 533.281 167.961C533.557 167.981 533.837 167.946 534.075 167.863C535.577 167.344 537.139 166.897 538.773 166.521C542.924 165.555 547.358 165.057 551.834 165.054C558.081 165.058 564.213 166.028 569.593 167.863C569.831 167.945 570.11 167.978 570.385 167.958C570.66 167.938 570.916 167.866 571.112 167.753C571.308 167.64 571.433 167.492 571.467 167.333C571.502 167.174 571.443 167.014 571.302 166.876C570.403 166.009 569.627 165.101 568.979 164.163Z" fill="url(#paint0_linear_6411_8838)"/>
<path d="M568.979 164.163C567.307 161.766 566.444 159.206 566.439 156.622C566.445 153.015 568.124 149.475 571.302 146.37C571.443 146.232 571.502 146.071 571.467 145.912C571.433 145.754 571.308 145.606 571.112 145.493C570.916 145.38 570.66 145.307 570.385 145.287C570.11 145.268 569.831 145.301 569.593 145.383C564.212 147.216 558.081 148.185 551.834 148.189C547.358 148.186 542.924 147.688 538.773 146.723C537.142 146.348 535.577 145.9 534.075 145.383C533.837 145.3 533.557 145.265 533.281 145.284C533.004 145.304 532.747 145.376 532.55 145.49C532.353 145.603 532.228 145.752 532.195 145.911C532.161 146.071 532.221 146.232 532.366 146.37C533.263 147.236 534.036 148.138 534.688 149.081C536.361 151.478 537.223 154.038 537.228 156.622C537.222 160.229 535.543 163.77 532.366 166.876C532.221 167.013 532.161 167.175 532.195 167.334C532.228 167.494 532.353 167.643 532.55 167.756C532.747 167.87 533.004 167.942 533.281 167.961C533.557 167.981 533.837 167.946 534.075 167.863C535.577 167.344 537.139 166.897 538.773 166.521C542.924 165.555 547.358 165.057 551.834 165.054C558.081 165.058 564.213 166.028 569.593 167.863C569.831 167.945 570.11 167.978 570.385 167.958C570.66 167.938 570.916 167.866 571.112 167.753C571.308 167.64 571.433 167.492 571.467 167.333C571.502 167.174 571.443 167.014 571.302 166.876C570.403 166.009 569.627 165.101 568.979 164.163Z" fill="url(#paint1_linear_6411_8838)"/>
<path d="M568.979 164.163C567.307 161.766 566.444 159.206 566.439 156.622C566.445 153.015 568.124 149.475 571.302 146.37C571.443 146.232 571.502 146.071 571.467 145.912C571.433 145.754 571.308 145.606 571.112 145.493C570.916 145.38 570.66 145.307 570.385 145.287C570.11 145.268 569.831 145.301 569.593 145.383C564.212 147.216 558.081 148.185 551.834 148.189C547.358 148.186 542.924 147.688 538.773 146.723C537.142 146.348 535.577 145.9 534.075 145.383C533.837 145.3 533.557 145.265 533.281 145.284C533.004 145.304 532.747 145.376 532.55 145.49C532.353 145.603 532.228 145.752 532.195 145.911C532.161 146.071 532.221 146.232 532.366 146.37C533.263 147.236 534.036 148.138 534.688 149.081C536.361 151.478 537.223 154.038 537.228 156.622C537.222 160.229 535.543 163.77 532.366 166.876C532.221 167.013 532.161 167.175 532.195 167.334C532.228 167.494 532.353 167.643 532.55 167.756C532.747 167.87 533.004 167.942 533.281 167.961C533.557 167.981 533.837 167.946 534.075 167.863C535.577 167.344 537.139 166.897 538.773 166.521C542.924 165.555 547.358 165.057 551.834 165.054C558.081 165.058 564.213 166.028 569.593 167.863C569.831 167.945 570.11 167.978 570.385 167.958C570.66 167.938 570.916 167.866 571.112 167.753C571.308 167.64 571.433 167.492 571.467 167.333C571.502 167.174 571.443 167.014 571.302 166.876C570.403 166.009 569.627 165.101 568.979 164.163Z" fill="url(#paint2_linear_6411_8838)"/>
<defs>
<filter id="filter0_d_6411_8838" x="305.176" y="267.574" width="63.1839" height="44.094" filterUnits="userSpaceOnUse" color-interpolation-filters="sRGB">
<feFlood flood-opacity="0" result="BackgroundImageFix"/>
<feColorMatrix in="SourceAlpha" type="matrix" values="0 0 0 0 0 0 0 0 0 0 0 0 0 0 0 0 0 0 127 0" result="hardAlpha"/>
<feOffset dx="2.07451" dy="2.07451"/>
<feColorMatrix type="matrix" values="0 0 0 0 0.921931 0 0 0 0 0.921931 0 0 0 0 0.921931 0 0 0 0.72 0"/>
<feBlend mode="normal" in2="BackgroundImageFix" result="effect1_dropShadow_6411_8838"/>
<feBlend mode="normal" in="SourceGraphic" in2="effect1_dropShadow_6411_8838" result="shape"/>
</filter>
<linearGradient id="paint0_linear_6411_8838" x1="536.934" y1="155.104" x2="549.965" y2="156.609" gradientUnits="userSpaceOnUse">
<stop stop-color="#08B962"/>
<stop offset="1" stop-color="#08B962" stop-opacity="0"/>
</linearGradient>
<linearGradient id="paint1_linear_6411_8838" x1="556.216" y1="145.995" x2="555.009" y2="155.399" gradientUnits="userSpaceOnUse">
<stop stop-color="#F94543"/>
<stop offset="1" stop-color="#F94543" stop-opacity="0"/>
</linearGradient>
<linearGradient id="paint2_linear_6411_8838" x1="534.304" y1="149.537" x2="549.499" y2="170.762" gradientUnits="userSpaceOnUse">
<stop stop-color="#FABC12"/>
<stop offset="0.46" stop-color="#FABC12" stop-opacity="0"/>
</linearGradient>
</defs>
</svg>
