<svg width="822" height="591" viewBox="0 0 822 591" fill="none" xmlns="http://www.w3.org/2000/svg">
<path fill-rule="evenodd" clip-rule="evenodd" d="M497.301 70.832L460.301 51.832V148.332L588.051 208.351L685.301 166.87L497.301 70.832Z" fill="#E4E4E5"/>
<path fill-rule="evenodd" clip-rule="evenodd" d="M257.301 136.832L460.301 51.832L497.301 70.832L685.301 166.87L588.051 208.351L490.801 249.832L534.801 272.332L784.801 159.832L460.301 0.332031L206.801 111.332L257.301 136.832Z" fill="white"/>
<path fill-rule="evenodd" clip-rule="evenodd" d="M391.801 571.832V463.332L171.208 353.332V400.832V452.641L391.801 571.832Z" fill="white"/>
<path fill-rule="evenodd" clip-rule="evenodd" d="M391.801 463.332L606.551 367.332L821.301 271.332L784.801 252.832V265.832L534.801 376.332L490.801 353.332L391.801 397.832L242.301 322.117L171.208 353.332L391.801 463.332Z" fill="white"/>
<path fill-rule="evenodd" clip-rule="evenodd" d="M460.301 148.332L257.301 235.832L206.801 209.832V177.832L0.300781 268.332L19.8008 277.832L38.3008 287.057L78.8008 307.253L171.208 353.332L242.301 322.117L391.801 397.832L490.801 353.332V249.832L588.051 208.351L460.301 148.332Z" fill="white"/>
<path fill-rule="evenodd" clip-rule="evenodd" d="M171.208 452.641V400.832V353.332L78.8008 307.253L38.3008 287.057L19.8008 277.832L0.300781 268.332V311.832V328.832V353.332V359.832L2.80078 361.19L171.208 452.641Z" fill="white"/>
<path fill-rule="evenodd" clip-rule="evenodd" d="M814.801 379.291L606.551 474.082L391.801 571.832V590.332L814.801 397.832V379.291Z" fill="#0054C9"/>
<path fill-rule="evenodd" clip-rule="evenodd" d="M534.801 272.332L490.801 249.832V353.332L534.801 376.332V324.332V272.332Z" fill="white"/>
<path fill-rule="evenodd" clip-rule="evenodd" d="M460.301 51.832L257.301 136.832V184.832V235.832L460.301 148.332V51.832Z" fill="#E4E4E5"/>
<path fill-rule="evenodd" clip-rule="evenodd" d="M257.301 136.832L206.801 111.332V177.832V209.832L257.301 235.832V184.832V136.832Z" fill="white"/>
<path fill-rule="evenodd" clip-rule="evenodd" d="M784.801 159.832L534.801 272.332V324.332V376.332L784.801 265.832V252.832V159.832Z" fill="#E4E4E5"/>
<path fill-rule="evenodd" clip-rule="evenodd" d="M821.301 271.332L606.551 367.332L391.801 463.332V571.832L606.551 474.082L814.801 379.291L821.301 376.332V271.332Z" fill="#E4E4E5"/>
<path fill-rule="evenodd" clip-rule="evenodd" d="M391.801 571.832L171.208 452.641L2.80078 361.19V375.832L391.801 590.332V571.832Z" fill="#0263EF"/>
<path d="M257.301 136.832L460.301 51.832L497.301 70.832L685.301 166.87L588.051 208.351M460.301 51.832V148.332M460.301 148.332L588.051 208.351M206.801 177.832V209.832L257.301 235.832L460.301 148.332M490.801 353.332V249.832L588.051 208.351M257.301 136.832L206.801 111.332M257.301 136.832V184.832V235.832M490.801 249.832L534.801 272.332M534.801 272.332L784.801 159.832M534.801 272.332V324.332V376.332M784.801 252.832V159.832L460.301 0.332031L206.801 111.332V177.832M391.801 571.832V463.332M0.300781 311.832V328.832V353.332V359.832L2.80078 361.19L171.208 452.641L391.801 571.832M391.801 571.832V590.332M391.801 571.832L606.551 474.082M391.801 463.332L171.208 353.332M391.801 463.332L606.551 367.332M171.208 353.332L242.301 322.117L391.801 397.832L490.801 353.332M171.208 353.332L78.8008 307.253L38.3008 287.057L19.8008 277.832L0.300781 268.332M171.208 353.332V400.832M171.208 452.641V400.832M814.801 379.291L821.301 376.332V271.332L784.801 252.832M821.301 271.332L606.551 367.332M490.801 353.332L534.801 376.332L784.801 265.832V252.832M0.300781 311.832V268.332L206.801 177.832M814.801 379.291V397.832L391.801 590.332L2.80078 375.832V361.19M814.801 379.291L606.551 474.082M606.551 367.332V474.082M0.300781 311.832L54.8008 340.332L171.208 400.832" stroke="black" stroke-width="0.6"/>
<path d="M448.301 126.832L499.301 101.332L543.801 122.332V218.832L493.801 244.832L448.301 222.832V126.832Z" fill="#F67EFF"/>
<path d="M493.801 244.832L543.801 218.832V122.332L499.301 101.332L448.301 126.832L448.301 222.832L493.801 244.832ZM448.301 126.832L493.801 146.332M543.801 122.332L493.801 146.332M493.801 146.332V244.832" stroke="black" stroke-width="0.6"/>
<path d="M381.301 97.832L432.301 72.332L476.801 93.332V251.832L426.801 277.832L381.301 255.832V97.832Z" fill="#DEFF09"/>
<path d="M426.801 277.832L476.801 251.832V93.332L432.301 72.332L381.301 97.832V255.832L426.801 277.832ZM381.301 97.832L426.801 117.332M476.801 93.332L426.801 117.332M426.801 117.332V277.832" stroke="black" stroke-width="0.6"/>
<path d="M309.301 30.832L360.301 5.33203L404.801 26.332V290.832L354.801 316.832L309.301 294.832V30.832Z" fill="#0263EF"/>
<path d="M354.801 316.832L404.801 290.832V26.332L360.301 5.33203L309.301 30.832V294.832L354.801 316.832ZM309.301 30.832L354.801 50.332M404.801 26.332L354.801 50.332M354.801 50.332V316.832" stroke="black" stroke-width="0.6"/>
<circle cx="8.145" cy="8.145" r="7.78865" transform="matrix(0.866025 0.5 0 1 309.301 469.332)" fill="#0263EF" stroke="black" stroke-width="0.712687"/>
<path d="M337.516 485.979C341.241 488.13 344.262 493.361 344.262 497.662C344.262 501.964 341.242 503.707 337.516 501.557C333.791 499.406 330.772 494.175 330.772 489.874C330.772 485.572 333.791 483.829 337.516 485.979Z" stroke="black" stroke-width="0.712687"/>
<circle cx="8.145" cy="8.145" r="7.78865" transform="matrix(0.866025 0.5 0 1 351.623 493.77)" stroke="black" stroke-width="0.712687"/>
<path d="M343.964 75.32L334.811 71.2446V62.5355L331.854 61.2188V70.6683C331.854 71.672 332.215 72.797 332.859 73.7936L340.333 85.3721L342.424 83.9947L336.904 75.4431L343.966 78.5874V75.3227L343.964 75.32Z" fill="white"/>
<path d="M320.843 60.3271L326.363 68.8788L319.301 65.7344V68.9992L328.454 73.0745V81.7836L331.412 83.1004V73.6508C331.412 72.6471 331.05 71.5221 330.406 70.5255L322.934 58.9497L320.843 60.3271Z" fill="white"/>
<path fill-rule="evenodd" clip-rule="evenodd" d="M741.206 372.506L797.355 347.791V368.153L741.206 393.887V372.506Z" fill="#0054C9"/>
<path fill-rule="evenodd" clip-rule="evenodd" d="M741.206 372.506V393.887L735.691 390.369V368.48L741.206 372.506Z" fill="#0263EF"/>
<path fill-rule="evenodd" clip-rule="evenodd" d="M797.355 347.791L741.206 372.506L735.691 368.48L792.342 343.852L797.355 347.791Z" fill="#0263EF"/>
<path d="M792.542 343.549L797.556 347.487L797.746 347.636V368.443L797.562 368.528L741.414 394.261L741.235 394.342L741.045 394.221L735.53 390.704L735.301 390.557V368.187L792.342 343.39L792.542 343.549ZM736.082 368.773V390.183L741.176 393.432L796.964 367.863V347.946L792.342 344.316L736.082 368.773Z" fill="black"/>
</svg>
