<svg width="647" height="912" viewBox="0 0 647 912" fill="none" xmlns="http://www.w3.org/2000/svg">
<path fill-rule="evenodd" clip-rule="evenodd" d="M334.85 810.6L22.7952 635.483V653.809L334.85 829.436V810.6Z" fill="#0263EF"/>
<path fill-rule="evenodd" clip-rule="evenodd" d="M334.85 810.6L22.7952 635.483L32.9765 628.865L334.85 793.801L479.336 708.279L611.78 629.883L625.525 639.555L334.85 810.6Z" fill="#0263EF"/>
<path fill-rule="evenodd" clip-rule="evenodd" d="M625.525 639.555V657.882L480.188 743.659L334.85 829.436V810.6L625.525 639.555Z" fill="#0049AF"/>
<path fill-rule="evenodd" clip-rule="evenodd" d="M207.33 266.922L315.506 203.798V219.579L113.917 337.681L99.1546 330.046L207.33 266.922Z" fill="#BDBFC8"/>
<path fill-rule="evenodd" clip-rule="evenodd" d="M315.506 219.579V203.798L431.063 266.922L488.842 298.484L546.62 330.046L532.876 338.239L315.506 219.579Z" fill="#E9E9F0"/>
<path fill-rule="evenodd" clip-rule="evenodd" d="M315.506 219.579L113.917 337.681L217.002 393.169L334.85 456.293L440.735 393.169L532.876 338.239L315.506 219.579ZM235.796 294.109L402.296 386.609L420.796 375.609L253.396 283.109L235.796 294.109Z" fill="white"/>
<path fill-rule="evenodd" clip-rule="evenodd" d="M488.842 298.484L431.063 266.922L463.643 247.577L611.78 330.046L473.315 412.514L440.735 393.169L532.876 338.239L546.62 330.046L488.842 298.484Z" fill="white"/>
<path fill-rule="evenodd" clip-rule="evenodd" d="M334.85 456.293L440.735 393.169L473.315 412.514L334.85 494.982L183.913 412.514L217.002 393.169L334.85 456.293Z" fill="white"/>
<path fill-rule="evenodd" clip-rule="evenodd" d="M99.1546 330.046L113.917 337.681L217.002 393.169L183.913 412.514L32.9765 330.046L174.241 247.577L207.33 266.922L99.1546 330.046Z" fill="white"/>
<path fill-rule="evenodd" clip-rule="evenodd" d="M315.506 203.798L207.33 266.922L174.241 247.577L315.506 165.109L463.643 247.577L431.063 266.922L315.506 203.798Z" fill="white"/>
<path fill-rule="evenodd" clip-rule="evenodd" d="M479.336 708.279L334.85 793.801V494.982L473.315 412.514L479.336 708.279Z" fill="#E4E4E5"/>
<path fill-rule="evenodd" clip-rule="evenodd" d="M611.78 629.883L479.336 708.279L473.315 412.514L611.78 330.046V607.484V629.883Z" fill="#E4E4E5"/>
<path fill-rule="evenodd" clip-rule="evenodd" d="M334.85 844.707L646.396 660.936V721.514L334.85 911.395V844.707Z" fill="#E4E4E5"/>
<path fill-rule="evenodd" clip-rule="evenodd" d="M646.396 627.847L625.525 639.555L611.78 629.883V607.484L646.396 627.847Z" fill="#E4E4E5"/>
<path fill-rule="evenodd" clip-rule="evenodd" d="M22.7952 635.483L0.396484 622.247L32.9765 602.394V628.865L22.7952 635.483Z" fill="white"/>
<path fill-rule="evenodd" clip-rule="evenodd" d="M0.396484 654.318L334.85 844.707V911.395L0.396484 716.933V654.318Z" fill="white"/>
<path fill-rule="evenodd" clip-rule="evenodd" d="M334.85 494.982V793.801L32.9765 628.865V602.394V596.285V330.046L183.913 412.514L334.85 494.982Z" fill="white"/>
<path fill-rule="evenodd" clip-rule="evenodd" d="M22.7952 635.483V653.809L334.85 829.436L480.188 743.659L625.525 657.882V639.555L646.396 627.847V660.936L334.85 844.707L0.396484 654.318V622.247L22.7952 635.483Z" fill="white"/>
<path fill-rule="evenodd" clip-rule="evenodd" d="M402.296 386.609L235.796 294.109L253.396 283.109L420.796 375.609L402.296 386.609Z" fill="#2B7EF1"/>
<path d="M334.85 810.6L22.7952 635.483M334.85 810.6V829.436M334.85 810.6L625.525 639.555M625.525 639.555V657.882L480.188 743.659L334.85 829.436L22.7952 653.809V635.483M22.7952 635.483L32.9765 628.865M22.7952 635.483L0.396484 622.247M479.336 708.279L334.85 793.801L32.9765 628.865M32.9765 628.865V602.394M334.85 793.801V494.982M479.336 708.279L611.78 629.883M479.336 708.279L473.315 412.514M611.78 629.883L625.525 639.555M611.78 629.883V607.484M625.525 639.555L646.396 627.847M431.063 266.922L315.506 203.798L207.33 266.922M207.33 266.922L99.1546 330.046L113.917 337.681M207.33 266.922L174.241 247.577M315.506 203.798V219.579M315.506 219.579L113.917 337.681M315.506 219.579L532.876 338.239M113.917 337.681L217.002 393.169M431.063 266.922L488.842 298.484L546.62 330.046L532.876 338.239M431.063 266.922L463.643 247.577M532.876 338.239L440.735 393.169M217.002 393.169L334.85 456.293L440.735 393.169M217.002 393.169L183.913 412.514M440.735 393.169L473.315 412.514M174.241 247.577L315.506 165.109L463.643 247.577L611.78 330.046V607.484M611.78 330.046L473.315 412.514M473.315 412.514L334.85 494.982M334.85 494.982L183.913 412.514M183.913 412.514L32.9765 330.046M32.9765 602.394V596.285V330.046L174.241 247.577M646.396 660.936V627.847L611.78 607.484M334.85 844.707L646.396 660.936M334.85 844.707V911.395M334.85 844.707L0.396484 654.318M0.396484 654.318V716.933L334.85 911.395L646.396 721.514V660.936M0.396484 654.318V622.247L32.9765 602.394M235.796 294.109L402.296 386.609L420.796 375.609L253.396 283.109L235.796 294.109Z" stroke="black" stroke-width="0.794137"/>
<path fill-rule="evenodd" clip-rule="evenodd" d="M540.889 632.893L597.904 598.277V618.64L540.889 654.274V632.893Z" fill="#0054C9"/>
<path fill-rule="evenodd" clip-rule="evenodd" d="M540.889 632.893V654.274L535.289 651.729V629.839L540.889 632.893Z" fill="#0263EF"/>
<path fill-rule="evenodd" clip-rule="evenodd" d="M597.904 598.277L540.889 632.893L535.289 629.839L592.813 595.223L597.904 598.277Z" fill="#0263EF"/>
<path d="M593.017 594.881L598.108 597.935L598.301 598.051V618.858L598.115 618.975L541.1 654.609L540.919 654.722L540.725 654.634L535.125 652.089L534.893 651.983V629.613L592.813 594.758L593.017 594.881ZM535.686 630.061V651.471L540.858 653.822L597.507 618.416V598.499L592.813 595.683L535.686 630.061Z" fill="black"/>
<path fill-rule="evenodd" clip-rule="evenodd" d="M281.295 840.557L268.155 833.156V849.379L281.295 857.592V840.557Z" fill="#0054C9"/>
<path fill-rule="evenodd" clip-rule="evenodd" d="M281.295 840.557V857.592L285.756 855.564V838.124L281.295 840.557Z" fill="#0263EF"/>
<path fill-rule="evenodd" clip-rule="evenodd" d="M268.155 833.156L281.295 840.557L285.756 838.124L272.21 830.723L268.155 833.156Z" fill="#0263EF"/>
<path d="M272.048 830.45L267.993 832.883L267.839 832.975V849.552L267.987 849.646L281.127 857.858L281.271 857.948L281.426 857.878L285.887 855.85L286.072 855.765V837.943L272.211 830.352L272.048 830.45ZM285.44 838.3V855.357L281.319 857.231L268.471 849.201V833.332L272.211 831.089L285.44 838.3Z" fill="black"/>
<path fill-rule="evenodd" clip-rule="evenodd" d="M261.361 830.425L248.221 823.023V839.246L261.361 847.459V830.425Z" fill="#0054C9"/>
<path fill-rule="evenodd" clip-rule="evenodd" d="M261.361 830.425V847.459L265.822 845.431V827.991L261.361 830.425Z" fill="#0263EF"/>
<path fill-rule="evenodd" clip-rule="evenodd" d="M248.221 823.023L261.361 830.425L265.822 827.991L252.277 820.59L248.221 823.023Z" fill="#0263EF"/>
<path d="M252.115 820.317L248.059 822.75L247.905 822.842V839.419L248.053 839.513L261.193 847.725L261.338 847.815L261.492 847.745L265.953 845.717L266.139 845.633V827.81L252.277 820.219L252.115 820.317ZM265.507 828.167V845.225L261.386 847.098L248.537 839.068V823.2L252.277 820.956L265.507 828.167Z" fill="black"/>
<path fill-rule="evenodd" clip-rule="evenodd" d="M301.472 852.663L288.332 845.262V861.485L301.472 869.697V852.663Z" fill="#0054C9"/>
<path fill-rule="evenodd" clip-rule="evenodd" d="M301.472 852.663V869.697L305.934 867.669V850.229L301.472 852.663Z" fill="#0263EF"/>
<path fill-rule="evenodd" clip-rule="evenodd" d="M288.332 845.262L301.472 852.663L305.934 850.229L292.388 842.828L288.332 845.262Z" fill="#0263EF"/>
<path d="M292.226 842.555L288.17 844.989L288.017 845.081V861.658L288.165 861.751L301.305 869.964L301.449 870.053L301.603 869.983L306.065 867.956L306.25 867.871V850.048L292.388 842.457L292.226 842.555ZM305.618 850.406V867.463L301.497 869.336L288.649 861.306V845.438L292.388 843.195L305.618 850.406Z" fill="black"/>
<path fill-rule="evenodd" clip-rule="evenodd" d="M60.4473 605.447V391.641L65.0288 394.194V602.392L60.4473 605.447Z" fill="#BDBFC8"/>
<path fill-rule="evenodd" clip-rule="evenodd" d="M60.4473 605.447L65.0288 602.392L304.288 740.348V746.457L60.4473 605.447Z" fill="#E9E9F0"/>
<path d="M304.288 740.348V746.457L60.4473 605.447V391.641L65.0288 394.194M60.4473 605.447L65.0288 602.392M65.0288 394.194V602.392M65.0288 394.194L304.288 527.56V740.348M65.0288 602.392L304.288 740.348" stroke="black" stroke-width="1.01812"/>
<path d="M196.396 634.302L278.865 682.663L286.501 687.106V560.106L196.396 511.109V634.302Z" fill="#7EBCFF"/>
<circle cx="18.3262" cy="18.3262" r="18.3262" transform="matrix(0.866025 0.5 0 1 225.307 553.234)" fill="white"/>
<path d="M212.964 620.432C212.964 616.153 213.694 612.338 215.112 609.204C216.53 606.07 218.608 603.678 221.228 602.165C223.848 600.653 226.959 600.049 230.382 600.388C233.805 600.727 237.474 602.003 241.179 604.142C244.885 606.281 248.554 609.242 251.977 612.856C255.4 616.469 258.511 620.665 261.131 625.203C263.751 629.741 265.829 634.532 267.247 639.304C268.665 644.075 269.395 648.733 269.395 653.012L241.179 636.722L212.964 620.432Z" fill="white"/>
<path fill-rule="evenodd" clip-rule="evenodd" d="M401.219 98.2741V328.451L248.396 238.833V10.5428L401.219 98.2741Z" fill="#7EBCFF"/>
<path fill-rule="evenodd" clip-rule="evenodd" d="M401.219 98.2741L248.396 10.5428L262.547 1.10938L415.369 88.8406L401.219 98.2741Z" fill="#2B7EF1"/>
<path fill-rule="evenodd" clip-rule="evenodd" d="M401.219 328.451V98.2741L415.369 88.8406V321.847L401.219 328.451Z" fill="#2B7EF1"/>
<path d="M248.396 238.833L401.219 328.451L415.369 321.847V88.8406L262.547 1.10938L248.396 10.5428V238.833Z" stroke="black" stroke-width="1.88669"/>
<circle cx="33.9605" cy="33.9605" r="33.3001" transform="matrix(0.866025 0.5 0 1 293.91 80.3477)" fill="white" stroke="black" stroke-width="1.32069"/>
<path d="M271.612 204.54C271.685 196.965 273.018 190.202 275.544 184.619C278.143 178.875 281.953 174.492 286.754 171.719C291.556 168.947 297.258 167.84 303.532 168.461C309.806 169.083 316.531 171.42 323.322 175.341C330.113 179.262 336.838 184.69 343.112 191.313C349.386 197.936 355.087 205.626 359.889 213.943C364.691 222.261 368.5 231.042 371.099 239.788C373.625 248.287 374.959 256.591 375.032 264.25L271.612 204.54Z" fill="white" stroke="black" stroke-width="1.32069"/>
<path d="M85.3965 494.443L154.533 534.359L157.239 535.921L173.739 545.447V560.903L85.3965 509.899V494.443Z" fill="#0263EF"/>
<path fill-rule="evenodd" clip-rule="evenodd" d="M173.739 537.154V545.447L157.239 535.921L163.417 531.154L173.739 537.154Z" fill="#0263EF"/>
<rect x="0.440861" y="0.763593" width="100.991" height="14.4377" transform="matrix(0.866025 0.5 0 1 85.4555 534.408)" fill="#D9D9D9" stroke="black" stroke-width="1.01812"/>
<rect x="0.440861" y="0.763593" width="100.991" height="14.4377" transform="matrix(0.866025 0.5 0 1 85.4555 556.045)" fill="#D9D9D9" stroke="black" stroke-width="1.01812"/>
<circle cx="8.145" cy="8.145" r="7.78865" transform="matrix(0.866025 0.5 0 1 91.3965 455.109)" fill="#0263EF" stroke="black" stroke-width="0.712687"/>
<path d="M119.612 471.757C123.337 473.908 126.357 479.138 126.357 483.439C126.357 487.741 123.337 489.485 119.612 487.334C115.887 485.183 112.867 479.952 112.867 475.651C112.868 471.35 115.887 469.606 119.612 471.757Z" fill="#0263EF" stroke="black" stroke-width="0.712687"/>
<circle cx="8.145" cy="8.145" r="7.78865" transform="matrix(0.866025 0.5 0 1 133.719 479.547)" stroke="black" stroke-width="0.712687"/>
</svg>
