<svg xmlns="http://www.w3.org/2000/svg" width="24" height="24" viewBox="0 0 24 24" fill="none" stroke="#000" stroke-width="1.5" stroke-linecap="round" stroke-linejoin="round"><path d="M4 12C4 8.22876 4 6.34315 5.17157 5.17157C6.34315 4 8.22876 4 12 4C15.7712 4 17.6569 4 18.8284 5.17157C20 6.34315 20 8.22876 20 12C20 15.7712 20 17.6569 18.8284 18.8284C17.6569 20 15.7712 20 12 20C8.22876 20 6.34315 20 5.17157 18.8284C4 17.6569 4 15.7712 4 12Z" stroke="#000" stroke-linejoin="round" stroke-width="1.5"/><path d="M9.5 2V4" stroke="#000" stroke-linecap="round" stroke-linejoin="round" stroke-width="1.5"/><path d="M14.5 2V4" stroke="#000" stroke-linecap="round" stroke-linejoin="round" stroke-width="1.5"/><path d="M9.5 20V22" stroke="#000" stroke-linecap="round" stroke-linejoin="round" stroke-width="1.5"/><path d="M14.5 20V22" stroke="#000" stroke-linecap="round" stroke-linejoin="round" stroke-width="1.5"/><path d="M13 9L9 13" stroke="#000" stroke-linecap="round" stroke-linejoin="round" stroke-width="1.5"/><path d="M15 13L13 15" stroke="#000" stroke-linecap="round" stroke-linejoin="round" stroke-width="1.5"/><path d="M22 14.5L20 14.5" stroke="#000" stroke-linecap="round" stroke-linejoin="round" stroke-width="1.5"/><path d="M4 9.5L2 9.5" stroke="#000" stroke-linecap="round" stroke-linejoin="round" stroke-width="1.5"/><path d="M4 14.5L2 14.5" stroke="#000" stroke-linecap="round" stroke-linejoin="round" stroke-width="1.5"/><path d="M22 9.5L20 9.5" stroke="#000" stroke-linecap="round" stroke-linejoin="round" stroke-width="1.5"/></svg>
